<svg width="512" height="512" viewBox="0 0 512 512" fill="none" xmlns="http://www.w3.org/2000/svg">
<g clip-path="url(#clip0)">
<path d="M496.991 199.411H449.574C446.318 188.747 442.183 178.376 437.211 168.4L474.409 131.201C477.223 128.387 478.805 124.57 478.805 120.589C478.805 116.608 477.224 112.792 474.409 109.977L408.222 43.7907C402.362 37.9294 392.858 37.9294 386.997 43.7907L350.974 79.8122C340.846 74.4161 330.279 69.8986 319.382 66.3035V15.1725C319.382 6.88376 312.663 0.16394 304.374 0.16394H210.773C202.484 0.16394 195.764 6.88376 195.764 15.1725V65.2139C184.35 68.7559 173.273 73.3095 162.649 78.8266L130.226 46.4032C124.366 40.5419 114.862 40.5429 109.001 46.4032L42.8153 112.589C36.954 118.449 36.954 127.953 42.8153 133.814L75.4879 166.487C70.0688 177.066 65.6043 188.079 62.1393 199.411H15.0085C6.71982 199.411 0 206.131 0 214.42V308.021C0 316.31 6.71982 323.029 15.0085 323.029H63.7742C67.3233 333.63 71.7478 343.915 77.0048 353.784L42.162 388.626C39.3474 391.44 37.7655 395.257 37.7655 399.239C37.7655 403.219 39.3464 407.036 42.162 409.851L108.348 476.036C114.208 481.898 123.711 481.898 129.573 476.036L165.589 440.02C174.717 444.571 184.17 448.422 193.864 451.536V496.827C193.864 505.116 200.584 511.836 208.873 511.836H302.474C310.763 511.836 317.482 505.116 317.482 496.827V451.652C327.983 448.299 338.203 444.082 348.043 439.041L385.365 476.363C391.224 482.223 400.728 482.224 406.59 476.363L472.777 410.177C475.591 407.362 477.173 403.545 477.173 399.564C477.173 395.584 475.592 391.766 472.777 388.952L435.703 351.878C440.524 342.589 444.616 332.943 447.938 323.028H496.991C505.28 323.028 512 316.309 512 308.02V214.419C512 206.131 505.28 199.411 496.991 199.411V199.411ZM481.983 293.012H436.811C430.039 293.012 424.108 297.546 422.329 304.08C418.252 319.062 412.147 333.436 404.186 346.803C400.671 352.704 401.611 360.239 406.468 365.095L440.938 399.565L395.975 444.525L361.306 409.857C356.472 405.023 348.985 404.065 343.093 407.527C329.195 415.69 314.278 421.844 298.753 425.814C292.11 427.513 287.464 433.498 287.464 440.354V481.818H223.88V440.261C223.88 433.416 219.249 427.439 212.621 425.729C197.837 421.915 183.597 416.122 170.299 408.512C164.422 405.148 157.02 406.137 152.232 410.926L118.959 444.198L73.9971 399.238L106.327 366.909C111.229 362.008 112.137 354.387 108.522 348.472C100.074 334.644 93.6332 319.708 89.3808 304.08C87.6038 297.546 81.6704 293.011 74.8986 293.011H30.0171V229.427H73.5878C80.5178 229.427 86.5462 224.683 88.1761 217.947C92.1204 201.636 98.455 185.988 107.002 171.435C110.464 165.542 109.506 158.055 104.673 153.222L74.6524 123.201L119.614 78.2403L149.434 108.059C154.291 112.917 161.824 113.857 167.726 110.342C182.281 101.673 197.974 95.226 214.37 91.1797C221.072 89.5257 225.781 83.5123 225.781 76.6084V30.181H289.365V77.4839C289.365 84.2807 293.933 90.2301 300.501 91.9841C316.41 96.2345 331.604 102.744 345.663 111.333C351.579 114.946 359.199 114.04 364.101 109.138L397.61 75.6288L442.572 120.589L408.118 155.043C403.329 159.832 402.341 167.233 405.705 173.11C413.734 187.141 419.734 202.228 423.538 217.949C425.167 224.684 431.195 229.428 438.125 229.428H481.983V293.012Z" fill="#FEFEFE"/>
<path d="M142.485 236.554C145.568 241.382 152.154 244.745 158.767 242.967L185.351 236.251C193.387 234.221 198.256 226.06 196.226 218.024C194.483 211.124 188.216 206.571 181.394 206.704C197.646 182.517 225.259 167.099 255.529 167.099C294.433 167.099 328.565 191.957 340.466 228.954C343.004 236.844 351.454 241.186 359.348 238.647C367.24 236.108 371.579 227.654 369.041 219.764C353.135 170.31 307.518 137.082 255.53 137.082C212.485 137.082 173.44 160.409 152.451 196.381C147.743 190.425 139.201 188.87 132.647 193.028C125.647 197.467 123.571 206.741 128.011 213.74L142.417 236.454C142.439 236.488 142.463 236.52 142.485 236.554V236.554Z" fill="#FEFEFE"/>
<path d="M369.724 275.77C366.658 270.873 360.221 267.171 353.232 269.033L326.649 275.748C318.612 277.778 313.744 285.938 315.774 293.975C317.493 300.778 323.603 305.311 330.314 305.311C330.409 305.311 330.505 305.304 330.6 305.302C314.348 329.486 286.736 344.9 256.47 344.9C217.568 344.9 183.436 320.042 171.534 283.045C168.995 275.154 160.54 270.813 152.65 273.353C144.76 275.892 140.42 284.346 142.958 292.237C158.866 341.691 204.482 374.918 256.469 374.918C299.514 374.918 338.56 351.591 359.549 315.619C364.256 321.576 372.799 323.13 379.353 318.973C386.353 314.533 388.428 305.259 383.988 298.26L369.724 275.77Z" fill="#FEFEFE"/>
</g>
<defs>
<clipPath id="clip0">
<rect width="512" height="512" fill="white"/>
</clipPath>
</defs>
</svg>
