<svg width="231" height="162" viewBox="0 0 231 162" fill="none" xmlns="http://www.w3.org/2000/svg">
<g clip-path="url(#clip0)">
<path d="M134.037 158.406C132.32 159.636 130.46 160.651 128.496 161.429C127.982 161.634 127.465 161.826 126.939 162H100.101C99.9924 161.811 99.8867 161.62 99.7781 161.429C97.6009 157.531 95.6265 153.483 95.0665 149.08C94.395 143.794 96.278 137.809 100.932 135.211C101.542 134.872 102.188 134.601 102.858 134.406C103.135 134.32 103.418 134.251 103.704 134.191C105.449 133.804 107.265 133.889 108.966 134.436C110.667 134.983 112.192 135.974 113.384 137.306C114.575 138.638 115.39 140.263 115.746 142.015C116.101 143.766 115.983 145.581 115.404 147.271C119.35 143.226 118.613 136.666 117.253 131.183C115.89 125.7 114.239 119.597 117.013 114.671C118.553 111.931 121.265 110.231 124.305 109.546C124.399 109.526 124.493 109.506 124.585 109.489C128.209 108.754 131.977 109.415 135.137 111.337C140.954 115 143.94 121.951 144.908 128.757C146.471 139.711 143.014 151.934 134.037 158.406Z" fill="#F2F2F2"/>
<path d="M105.81 137.683C107.958 142.045 108.643 146.983 107.764 151.766C107.1 155.272 105.638 158.579 103.489 161.429C103.344 161.623 103.195 161.814 103.044 162H101.984C102.147 161.814 102.306 161.623 102.458 161.429C104.409 158.998 105.824 156.182 106.609 153.166C107.394 150.15 107.531 147.002 107.012 143.929C106.397 140.471 104.973 137.209 102.858 134.406C103.135 134.32 103.418 134.251 103.704 134.191C104.508 135.29 105.213 136.459 105.81 137.683Z" fill="white"/>
<path d="M131.485 140.846C131.255 143.262 130.675 145.631 129.762 147.88C128.92 149.87 127.786 151.723 126.396 153.377C123.559 156.791 119.804 159.36 115.727 161.069C115.43 161.194 115.13 161.314 114.827 161.429C114.301 161.634 113.77 161.823 113.235 162H110.341C111.024 161.829 111.704 161.637 112.375 161.429C113.972 160.932 115.53 160.318 117.036 159.591C120.864 157.777 124.188 155.051 126.716 151.651C129.427 147.909 130.625 143.409 130.83 138.834C131.048 133.94 130.41 128.957 129.293 124.194C128.153 119.312 126.419 114.589 124.13 110.129C124.079 110.028 124.068 109.911 124.101 109.802C124.133 109.694 124.206 109.602 124.304 109.546C124.387 109.491 124.487 109.471 124.584 109.489C124.632 109.501 124.676 109.524 124.714 109.555C124.751 109.587 124.781 109.627 124.802 109.671C125.084 110.223 125.362 110.774 125.627 111.331C127.846 115.976 129.481 120.879 130.493 125.926C131.473 130.794 131.999 135.889 131.485 140.846Z" fill="white"/>
<path d="M12.1347 80.8571C9.76127 80.8571 7.4411 80.1534 5.46764 78.8348C3.49417 77.5162 1.95605 75.642 1.04776 73.4493C0.139475 71.2566 -0.0981711 68.8438 0.364869 66.516C0.827909 64.1883 1.97084 62.0501 3.64913 60.3718C5.32743 58.6936 7.4657 57.5507 9.79356 57.0877C12.1214 56.6247 14.5343 56.8623 16.7271 57.7706C18.9199 58.6788 20.7941 60.2169 22.1127 62.1903C23.4314 64.1637 24.1352 66.4838 24.1352 68.8571C24.1316 72.0386 22.8661 75.0888 20.6163 77.3384C18.3666 79.5881 15.3163 80.8535 12.1347 80.8571ZM12.1347 57.4286C9.87429 57.4286 7.66461 58.0988 5.78512 59.3546C3.90563 60.6104 2.44075 62.3953 1.57571 64.4836C0.710678 66.5719 0.484346 68.8698 0.925336 71.0867C1.36633 73.3037 2.45483 75.34 4.05321 76.9384C5.65158 78.5367 7.68803 79.6251 9.90504 80.0661C12.1221 80.5071 14.42 80.2808 16.5084 79.4158C18.5968 78.5508 20.3818 77.0859 21.6376 75.2065C22.8934 73.3271 23.5637 71.1175 23.5637 68.8571C23.5603 65.8271 22.3551 62.9222 20.2125 60.7797C18.0699 58.6372 15.1648 57.432 12.1347 57.4286Z" fill="#3F3D56"/>
<path d="M60.708 42.2857C58.3345 42.2857 56.0143 41.5819 54.0409 40.2633C52.0674 38.9448 50.5293 37.0706 49.621 34.8779C48.7127 32.6852 48.4751 30.2724 48.9381 27.9446C49.4011 25.6169 50.5441 23.4787 52.2224 21.8004C53.9007 20.1222 56.0389 18.9793 58.3668 18.5163C60.6947 18.0533 63.1076 18.2909 65.3004 19.1992C67.4931 20.1074 69.3674 21.6455 70.686 23.6189C72.0046 25.5923 72.7084 27.9123 72.7084 30.2857C72.7048 33.4672 71.4393 36.5174 69.1896 38.767C66.9399 41.0167 63.8896 42.2821 60.708 42.2857ZM60.708 18.8571C58.4475 18.8571 56.2379 19.5274 54.3584 20.7832C52.4789 22.039 51.014 23.8239 50.149 25.9122C49.2839 28.0005 49.0576 30.2984 49.4986 32.5153C49.9396 34.7322 51.0281 36.7686 52.6265 38.3669C54.2248 39.9652 56.2613 41.0537 58.4783 41.4947C60.6953 41.9357 62.9933 41.7093 65.0817 40.8443C67.17 39.9793 68.955 38.5145 70.2108 36.6351C71.4667 34.7557 72.137 32.5461 72.137 30.2857C72.1336 27.2557 70.9283 24.3508 68.7857 22.2083C66.6431 20.0657 63.7381 18.8606 60.708 18.8571Z" fill="#3F3D56"/>
<path d="M112.71 24C110.336 24 108.016 23.2962 106.043 21.9776C104.069 20.6591 102.531 18.7849 101.623 16.5922C100.715 14.3995 100.477 11.9867 100.94 9.65892C101.403 7.33115 102.546 5.19295 104.224 3.51472C105.903 1.83649 108.041 0.693604 110.369 0.230582C112.697 -0.232441 115.11 0.00520018 117.302 0.913452C119.495 1.8217 121.369 3.35977 122.688 5.33316C124.007 7.30655 124.71 9.62663 124.71 12C124.707 15.1815 123.441 18.2317 121.192 20.4813C118.942 22.731 115.892 23.9964 112.71 24ZM112.71 0.571433C110.449 0.571433 108.24 1.24171 106.36 2.49749C104.481 3.75328 103.016 5.53818 102.151 7.62648C101.286 9.71478 101.06 12.0127 101.501 14.2296C101.942 16.4465 103.03 18.4829 104.628 20.0812C106.227 21.6795 108.263 22.768 110.48 23.209C112.697 23.65 114.995 23.4236 117.084 22.5586C119.172 21.6936 120.957 20.2288 122.213 18.3494C123.469 16.47 124.139 14.2604 124.139 12C124.136 8.97001 122.93 6.06509 120.788 3.92256C118.645 1.78003 115.74 0.574851 112.71 0.571433Z" fill="#3F3D56"/>
<path d="M168.141 42.8571C165.767 42.8571 163.447 42.1533 161.474 40.8348C159.5 39.5162 157.962 37.642 157.054 35.4493C156.145 33.2566 155.908 30.8438 156.371 28.516C156.834 26.1883 157.977 24.0501 159.655 22.3718C161.333 20.6936 163.472 19.5507 165.799 19.0877C168.127 18.6247 170.54 18.8623 172.733 19.7706C174.926 20.6788 176.8 22.2169 178.119 24.1903C179.437 26.1637 180.141 28.4837 180.141 30.8571C180.137 34.0386 178.872 37.0888 176.622 39.3384C174.372 41.5881 171.322 42.8535 168.141 42.8571ZM168.141 19.4285C165.88 19.4285 163.67 20.0988 161.791 21.3546C159.911 22.6104 158.447 24.3953 157.582 26.4836C156.717 28.5719 156.49 30.8698 156.931 33.0867C157.372 35.3037 158.461 37.34 160.059 38.9383C161.657 40.5367 163.694 41.6251 165.911 42.0661C168.128 42.5071 170.426 42.2807 172.514 41.4157C174.603 40.5507 176.388 39.0859 177.643 37.2065C178.899 35.3271 179.57 33.1175 179.57 30.8571C179.566 27.8271 178.361 24.9222 176.218 22.7797C174.076 20.6371 171.171 19.432 168.141 19.4285Z" fill="#3F3D56"/>
<path d="M218.999 71.7143C216.626 71.7143 214.306 71.0105 212.332 69.6919C210.359 68.3733 208.821 66.4992 207.913 64.3064C207.004 62.1137 206.767 59.7009 207.23 57.3732C207.693 55.0454 208.836 52.9072 210.514 51.229C212.192 49.5507 214.33 48.4078 216.658 47.9448C218.986 47.4818 221.399 47.7194 223.592 48.6277C225.785 49.5359 227.659 51.074 228.978 53.0474C230.296 55.0208 231 57.3409 231 59.7142C230.996 62.8957 229.731 65.9459 227.481 68.1956C225.231 70.4452 222.181 71.7107 218.999 71.7143ZM218.999 48.2857C216.739 48.2857 214.529 48.9559 212.65 50.2117C210.77 51.4675 209.305 53.2524 208.44 55.3407C207.575 57.429 207.349 59.7269 207.79 61.9439C208.231 64.1608 209.32 66.1972 210.918 67.7955C212.516 69.3938 214.553 70.4823 216.77 70.9232C218.987 71.3642 221.285 71.1379 223.373 70.2729C225.462 69.4079 227.247 67.943 228.502 66.0636C229.758 64.1842 230.429 61.9746 230.429 59.7142C230.425 56.6843 229.22 53.7793 227.077 51.6368C224.935 49.4943 222.03 48.2891 218.999 48.2857Z" fill="#3F3D56"/>
<path d="M67.5654 26.9993L68.994 26.7136C68.994 26.7136 67.794 28.0565 67.5654 28.1422C67.5441 28.4275 67.5441 28.714 67.5654 28.9993C64.8224 40.7708 54.7078 35.5708 54.7078 35.5708C58.3936 35.6565 58.7079 34.1422 58.7079 34.1422C56.565 33.8279 56.1364 32.4279 56.1364 32.4279C56.3287 32.5293 56.5516 32.5562 56.7625 32.5035C56.9733 32.4508 57.1574 32.3221 57.2793 32.1422C54.9649 31.5422 55.2792 29.285 55.2792 29.285C55.6917 29.5829 56.1738 29.7698 56.6793 29.8279C56.4221 29.5136 54.2506 26.9136 55.5649 25.5708C55.5649 25.5708 57.165 28.4279 61.3652 28.685L61.6509 28.6279C61.6023 28.4221 61.5831 28.2105 61.5937 27.9993C61.5937 27.2037 61.9098 26.4406 62.4725 25.878C63.0351 25.3154 63.7982 24.9993 64.5939 24.9993C66.5939 24.9993 67.0225 26.1422 67.0225 26.1422L68.4511 25.285C68.4226 25.285 68.2797 26.7136 67.5654 26.9993Z" fill="#3F3D56"/>
<path d="M158.806 154.181L161.951 155.723L169.395 144.324L164.753 142.049L158.806 154.181Z" fill="#FFB8B8"/>
<path d="M158.507 152.761L164.701 155.797L164.702 155.797C165.22 156.051 165.683 156.405 166.065 156.838C166.447 157.271 166.739 157.775 166.926 158.322C167.113 158.868 167.19 159.445 167.154 160.022C167.118 160.598 166.968 161.161 166.714 161.679L166.651 161.808L156.509 156.836L158.507 152.761Z" fill="#2F2E41"/>
<path d="M189.976 159.555L193.479 159.555L195.146 146.044H189.976L189.976 159.555Z" fill="#FFB8B8"/>
<path d="M189.083 157.269L195.981 157.268H195.982C196.559 157.268 197.131 157.382 197.664 157.603C198.198 157.824 198.682 158.148 199.09 158.556C199.499 158.964 199.823 159.449 200.043 159.982C200.264 160.516 200.378 161.087 200.378 161.665V161.807L189.083 161.808L189.083 157.269Z" fill="#2F2E41"/>
<path d="M182.452 66.3112C186.328 66.3112 189.47 63.1694 189.47 59.2938C189.47 55.4182 186.328 52.2764 182.452 52.2764C178.577 52.2764 175.435 55.4182 175.435 59.2938C175.435 63.1694 178.577 66.3112 182.452 66.3112Z" fill="#FFB8B8"/>
<path d="M189.44 155.099C189.109 155.098 188.791 154.97 188.552 154.741C188.313 154.512 188.172 154.2 188.157 153.869L185.445 117.766C185.442 117.671 185.407 117.58 185.347 117.507C185.287 117.434 185.204 117.383 185.112 117.362C185.02 117.341 184.923 117.351 184.837 117.391C184.751 117.43 184.681 117.497 184.637 117.581L167.284 150.707C167.127 151.005 166.859 151.229 166.539 151.332C166.219 151.435 165.872 151.41 165.57 151.261L160.733 148.842C160.429 148.69 160.198 148.424 160.09 148.102C159.982 147.78 160.005 147.428 160.155 147.123L170.509 126.143L177.367 110.427C180.014 105.213 182.825 102.526 185.961 102.213C189.178 101.891 192.613 104.103 196.465 108.975L196.496 109.014L196.495 109.065L195.924 153.167C195.925 153.487 195.806 153.796 195.59 154.033C195.374 154.27 195.077 154.417 194.758 154.445L189.566 155.093C189.524 155.097 189.482 155.099 189.44 155.099Z" fill="#2F2E41"/>
<path d="M175.045 112.965C175.427 112.73 175.753 112.413 175.999 112.038C176.245 111.663 176.407 111.238 176.471 110.794C176.536 110.35 176.502 109.898 176.373 109.468C176.243 109.038 176.021 108.642 175.722 108.308L176.78 80.3489L171.637 80.9899L171.204 108.19C170.675 108.729 170.362 109.444 170.325 110.199C170.289 110.953 170.53 111.695 171.003 112.284C171.477 112.872 172.15 113.267 172.895 113.392C173.64 113.518 174.405 113.366 175.045 112.965Z" fill="#FFB8B8"/>
<path d="M178.299 85.2919L171.392 84.5071C171.196 84.4848 171.006 84.4204 170.837 84.3182C170.668 84.2161 170.522 84.0787 170.411 83.9153C170.299 83.752 170.224 83.5665 170.191 83.3716C170.158 83.1766 170.167 82.9768 170.218 82.7857L172.001 76.0892C172.121 75.0845 172.634 74.1684 173.429 73.5418C174.223 72.9151 175.234 72.629 176.239 72.7462C177.244 72.8634 178.161 73.3743 178.79 74.1669C179.419 74.9596 179.708 75.9692 179.594 76.9746L179.83 83.8779C179.836 84.0755 179.8 84.2723 179.724 84.4548C179.648 84.6373 179.533 84.8012 179.388 84.9354C179.243 85.0696 179.07 85.1709 178.882 85.2325C178.694 85.294 178.495 85.3143 178.299 85.2919V85.2919Z" fill="#5375E2"/>
<path d="M208.05 67.692C208.015 67.8462 207.992 68.0028 207.982 68.1606L195.708 75.2412L192.725 73.5237L189.544 77.6873L194.53 81.2408C194.933 81.5279 195.418 81.6766 195.913 81.6646C196.407 81.6525 196.884 81.4804 197.273 81.174L209.929 71.1895C210.5 71.4009 211.122 71.4335 211.713 71.2828C212.303 71.1321 212.833 70.8053 213.233 70.3459C213.633 69.8864 213.883 69.3162 213.951 68.7109C214.019 68.1057 213.901 67.4941 213.613 66.9576C213.324 66.4211 212.88 65.985 212.338 65.7074C211.795 65.4298 211.182 65.3238 210.578 65.4035C209.974 65.4832 209.409 65.7449 208.957 66.1537C208.506 66.5625 208.189 67.099 208.05 67.692Z" fill="#FFB8B8"/>
<path d="M195.298 75.5765L191.331 80.7177C191.218 80.8639 191.075 80.9842 190.911 81.0702C190.748 81.1562 190.568 81.2059 190.383 81.216C190.199 81.2261 190.014 81.1964 189.842 81.1287C189.67 81.0611 189.515 80.9572 189.387 80.8241L184.896 76.1609C184.15 75.5794 183.665 74.7259 183.548 73.7875C183.431 72.8491 183.691 71.9026 184.271 71.1556C184.851 70.4086 185.703 69.9221 186.641 69.8029C187.58 69.6837 188.527 69.9415 189.275 70.5198L194.908 73.6691C195.069 73.7593 195.209 73.8833 195.318 74.0324C195.427 74.1816 195.502 74.3525 195.539 74.5335C195.576 74.7145 195.574 74.9014 195.532 75.0814C195.491 75.2614 195.411 75.4302 195.298 75.5765H195.298Z" fill="#5375E2"/>
<path d="M198.534 111.161L190.918 74.067C190.556 72.3039 189.525 70.7498 188.041 69.7312C186.557 68.7126 184.736 68.3088 182.96 68.6047L180.421 69.028C179.538 69.175 178.694 69.4944 177.935 69.9679C177.176 70.4414 176.518 71.0597 175.998 71.7875C175.172 72.944 174.615 74.2708 174.369 75.6705C174.123 77.0703 174.194 78.5073 174.577 79.876L178.78 94.9204L175.661 111.038C175.626 111.217 175.634 111.401 175.685 111.576C175.736 111.751 175.828 111.911 175.954 112.043C176.079 112.175 176.235 112.275 176.407 112.335C176.579 112.395 176.763 112.412 176.943 112.387C178.505 112.163 181.079 111.844 184.036 111.671L185.638 105.492L186.289 111.572C189.922 111.471 193.865 111.649 197.117 112.494C197.306 112.544 197.503 112.545 197.692 112.498C197.881 112.45 198.055 112.355 198.197 112.222C198.338 112.088 198.444 111.921 198.503 111.735C198.562 111.549 198.572 111.352 198.534 111.161Z" fill="#5375E2"/>
<path d="M185.153 57.7325C186.956 58.9669 189.325 60.2358 191.167 58.9213C192.376 58.0581 192.758 56.4597 192.267 55.057C191.385 52.5346 188.961 51.4241 186.644 50.5728C183.631 49.4663 180.351 48.5859 177.24 49.3784C174.13 50.1709 171.381 53.1821 171.943 56.3421C172.394 58.8833 174.791 60.9978 174.451 63.5563C174.109 66.1312 171.213 67.4865 168.656 67.9467C166.1 68.4069 163.239 68.5548 161.401 70.3911C159.058 72.7336 159.643 76.9206 161.848 79.3938C164.054 81.867 167.382 82.9881 170.607 83.7502C174.88 84.76 179.501 85.2907 183.559 83.6149C187.618 81.939 190.776 77.4279 189.6 73.1978C189.103 71.411 187.934 69.9009 186.803 68.4308C185.673 66.9607 184.528 65.4234 184.097 63.6197C183.737 62.1166 184.003 60.3715 185 59.244C185.181 59.0467 185.296 58.797 185.326 58.5307C185.357 58.2645 185.302 57.9954 185.17 57.7622L185.153 57.7325Z" fill="#2F2E41"/>
<path d="M115.978 6.06361C116.778 6.066 117.544 6.38459 118.109 6.94982C118.674 7.51505 118.993 8.28097 118.995 9.08032V15.1131C118.993 15.9125 118.674 16.6784 118.109 17.2436C117.544 17.8088 116.778 18.1274 115.978 18.1298H109.945C109.146 18.1274 108.38 17.8088 107.815 17.2436C107.249 16.6784 106.931 15.9125 106.928 15.1131V9.08032C106.931 8.28097 107.249 7.51505 107.815 6.94982C108.38 6.38459 109.146 6.06599 109.945 6.06361H115.978ZM115.978 4.85712H109.945C108.826 4.86038 107.754 5.30637 106.963 6.09767C106.171 6.88896 105.725 7.96126 105.722 9.08032V15.1131C105.725 16.2322 106.171 17.3045 106.963 18.0958C107.754 18.8871 108.826 19.3331 109.945 19.3363H115.978C117.097 19.3331 118.17 18.8871 118.961 18.0958C119.752 17.3045 120.198 16.2322 120.202 15.1131V9.08032C120.198 7.96126 119.752 6.88896 118.961 6.09767C118.17 5.30637 117.097 4.86038 115.978 4.85712Z" fill="#3F3D56"/>
<path d="M116.883 9.08037C116.644 9.07985 116.415 8.98436 116.246 8.81486C116.077 8.64535 115.982 8.41571 115.982 8.17639C115.982 7.93706 116.078 7.70763 116.247 7.53849C116.416 7.36935 116.646 7.27435 116.885 7.27435C117.125 7.27435 117.354 7.36935 117.523 7.53849C117.693 7.70763 117.788 7.93706 117.788 8.17639C117.789 8.41571 117.694 8.64535 117.525 8.81486C117.356 8.98436 117.126 9.07985 116.887 9.08037C116.886 9.08037 116.885 9.08037 116.883 9.08037Z" fill="#3F3D56"/>
<path d="M112.962 9.68342C113.439 9.68342 113.906 9.82496 114.303 10.0901C114.7 10.3553 115.009 10.7322 115.192 11.1732C115.374 11.6142 115.422 12.0994 115.329 12.5675C115.236 13.0357 115.006 13.4657 114.669 13.8032C114.331 14.1407 113.901 14.3705 113.433 14.4637C112.965 14.5568 112.479 14.509 112.038 14.3263C111.597 14.1437 111.221 13.8344 110.955 13.4375C110.69 13.0406 110.549 12.574 110.549 12.0967C110.549 11.4567 110.803 10.8428 111.255 10.3903C111.708 9.93768 112.322 9.68342 112.962 9.68342ZM112.962 8.47693C112.246 8.47693 111.546 8.68922 110.951 9.08697C110.356 9.48471 109.892 10.0501 109.618 10.7115C109.344 11.3729 109.272 12.1007 109.412 12.8029C109.551 13.5051 109.896 14.1501 110.402 14.6563C110.909 15.1625 111.554 15.5073 112.256 15.647C112.958 15.7866 113.686 15.715 114.347 15.441C115.009 15.167 115.574 14.7031 115.972 14.1078C116.37 13.5125 116.582 12.8127 116.582 12.0967C116.582 11.1367 116.201 10.216 115.522 9.53715C114.843 8.85831 113.922 8.47694 112.962 8.47693V8.47693Z" fill="#3F3D56"/>
<path d="M46.6212 158.209L43.2117 157.405L44.6874 143.873L49.7196 145.058L46.6212 158.209Z" fill="#FFB8B8"/>
<path d="M46.7121 161.719L35.7183 159.129L35.751 158.99C35.8834 158.428 36.1251 157.897 36.4625 157.429C36.7998 156.96 37.2261 156.563 37.7171 156.259C38.2081 155.955 38.7541 155.751 39.3239 155.659C39.8937 155.566 40.4762 155.586 41.0382 155.719L41.0384 155.719L47.7531 157.301L46.7121 161.719Z" fill="#2F2E41"/>
<path d="M59.9079 158.323H56.4049L54.7385 144.812L59.9084 144.813L59.9079 158.323Z" fill="#FFB8B8"/>
<path d="M60.8012 161.719L49.5063 161.718V161.575C49.5063 160.998 49.62 160.426 49.841 159.893C50.0619 159.36 50.3857 158.875 50.794 158.467C51.2022 158.059 51.6869 157.735 52.2202 157.514C52.7536 157.293 53.3253 157.179 53.9026 157.179H53.9029L60.8014 157.18L60.8012 161.719Z" fill="#2F2E41"/>
<path d="M78.827 104.89C79.0617 104.508 79.2096 104.078 79.2604 103.633C79.3112 103.187 79.2636 102.735 79.121 102.31C78.9784 101.884 78.7443 101.495 78.435 101.17C78.1258 100.845 77.7491 100.592 77.3313 100.428L67.0755 74.4211L61.3694 77.8849L73.2448 102.359C73.0161 103.079 73.0595 103.858 73.3667 104.548C73.6739 105.239 74.2236 105.792 74.9117 106.104C75.5998 106.416 76.3784 106.465 77.1 106.241C77.8216 106.017 78.4361 105.537 78.827 104.89Z" fill="#FFB8B8"/>
<path d="M69.2549 78.722L62.7362 81.135C62.5507 81.2036 62.3526 81.2315 62.1554 81.2167C61.9582 81.2019 61.7664 81.1447 61.5933 81.0492C61.4201 80.9536 61.2696 80.8218 61.152 80.6628C61.0344 80.5039 60.9524 80.3214 60.9116 80.1279L59.4843 73.3467C59.1385 72.3958 59.1839 71.3466 59.6105 70.4291C60.0371 69.5116 60.8101 68.8007 61.76 68.4522C62.71 68.1037 63.7594 68.1462 64.6781 68.5702C65.5968 68.9941 66.3099 69.7651 66.6611 70.7141L69.984 76.7697C70.079 76.9431 70.1356 77.135 70.1499 77.3322C70.1641 77.5295 70.1357 77.7275 70.0665 77.9128C69.9973 78.098 69.889 78.2662 69.749 78.4059C69.6089 78.5455 69.4404 78.6534 69.2549 78.722V78.722Z" fill="#5375E2"/>
<path d="M59.6752 153.473C59.6581 153.473 59.6409 153.473 59.6237 153.472L54.6585 153.273C54.323 153.262 54.0054 153.119 53.7745 152.875C53.5436 152.631 53.4178 152.307 53.4243 151.971L53.8053 124.542C53.8069 124.432 53.7658 124.325 53.6908 124.245C53.6157 124.164 53.5123 124.115 53.4022 124.108C53.292 124.102 53.1836 124.138 53.0994 124.209C53.0153 124.281 52.962 124.382 52.9505 124.492L50.0701 151.95C50.0402 152.23 49.9197 152.492 49.727 152.697C49.5343 152.902 49.28 153.038 49.0028 153.085L48.9856 153.087L44.3243 152.721C44.1406 152.749 43.953 152.737 43.7744 152.685C43.5958 152.634 43.4306 152.544 43.2899 152.423C43.1493 152.301 43.0367 152.151 42.9599 151.981C42.8831 151.812 42.8439 151.628 42.845 151.443L43.1237 104.934L65.9962 106.382L60.9532 152.328C60.9177 152.642 60.7679 152.932 60.5323 153.144C60.2967 153.355 59.9916 153.472 59.6752 153.473Z" fill="#2F2E41"/>
<path d="M55.4945 64.3343C59.3703 64.3343 62.5122 61.1925 62.5122 57.3169C62.5122 53.4413 59.3703 50.2994 55.4945 50.2994C51.6187 50.2994 48.4768 53.4413 48.4768 57.3169C48.4768 61.1925 51.6187 64.3343 55.4945 64.3343Z" fill="#FFB8B8"/>
<path d="M64.859 108.429C64.8268 108.429 64.7944 108.428 64.7619 108.426L43.6229 106.88C43.2943 106.856 42.9874 106.706 42.7657 106.463C42.5439 106.219 42.4242 105.899 42.4312 105.57L42.9886 79.026C42.9512 77.3973 43.2466 75.7781 43.8567 74.2675C44.4668 72.757 45.3787 71.3868 46.5367 70.2408C47.6946 69.0948 49.0743 68.1972 50.5912 67.6028C52.1081 67.0085 53.7303 66.7299 55.3585 66.7841C56.9868 66.8383 58.5869 67.2243 60.0609 67.9183C61.5348 68.6122 62.8517 69.5997 63.9308 70.8202C65.0099 72.0407 65.8287 73.4685 66.3369 75.0164C66.8451 76.5642 67.0321 78.1994 66.8864 79.822C66.5168 83.913 66.2227 101.785 66.1414 107.165C66.1362 107.502 65.9989 107.823 65.759 108.06C65.5191 108.296 65.1959 108.429 64.859 108.429Z" fill="#5375E2"/>
<path d="M27.1874 65.1976C27.2225 65.3518 27.2453 65.5085 27.2558 65.6662L39.5298 72.7468L42.5132 71.0294L45.6936 75.1929L40.7076 78.7465C40.3048 79.0336 39.8197 79.1822 39.3253 79.1702C38.8308 79.1581 38.3535 78.986 37.9652 78.6797L25.3085 68.6951C24.7374 68.9066 24.1153 68.9391 23.5252 68.7884C22.9351 68.6377 22.4048 68.3109 22.005 67.8515C21.6051 67.3921 21.3546 66.8218 21.2867 66.2166C21.2189 65.6113 21.3369 64.9997 21.6252 64.4632C21.9134 63.9267 22.3581 63.4906 22.9002 63.213C23.4424 62.9354 24.0561 62.8294 24.66 62.9091C25.2638 62.9888 25.829 63.2505 26.2805 63.6593C26.732 64.0681 27.0483 64.6047 27.1874 65.1976Z" fill="#FFB8B8"/>
<path d="M39.6986 72.039C39.7355 71.858 39.8111 71.6871 39.9201 71.5379C40.0292 71.3888 40.1691 71.2649 40.3304 71.1747L45.9629 68.0254C46.7112 67.4482 47.6579 67.1912 48.5954 67.3108C49.533 67.4304 50.3848 67.9167 50.9644 68.6633C51.5439 69.4098 51.8038 70.3557 51.6872 71.2935C51.5705 72.2314 51.0868 73.0847 50.3421 73.6666L45.8512 78.3298C45.7231 78.4628 45.5677 78.5667 45.3958 78.6343C45.2238 78.702 45.0393 78.7317 44.8548 78.7216C44.6703 78.7115 44.4902 78.6618 44.3267 78.5758C44.1631 78.4898 44.02 78.3696 43.9072 78.2233L39.9402 73.0821C39.8273 72.9359 39.7472 72.767 39.7055 72.587C39.6638 72.4069 39.6614 72.22 39.6986 72.039Z" fill="#5375E2"/>
<path d="M59.1211 62.8725C58.041 62.8645 56.9806 62.5829 56.0389 62.0541C55.0971 61.5253 54.3047 60.7665 53.7357 59.8485C53.6739 59.7517 53.3361 59.2556 52.945 58.6814C51.8459 57.0675 51.5882 56.6836 51.5664 56.6272C51.2689 55.8599 50.3249 55.5636 49.5853 55.4501C49.4474 55.4289 49.3074 55.4102 49.167 55.3912C48.1254 55.2517 47.0483 55.1074 46.4578 53.9626C46.0247 53.1225 45.3163 49.7015 45.8603 48.8655C46.5423 47.817 47.852 48.1574 49.1186 48.4869C49.929 48.6973 50.7669 48.9152 51.4346 48.7762C54.3287 48.1741 57.6091 47.4916 60.506 49.2559C62.8117 50.6596 64.1985 53.3108 64.1253 56.175C64.0467 59.2506 62.7052 61.6783 60.5369 62.6694L60.0855 62.8008L59.8316 62.8321C59.5957 62.859 59.3585 62.8725 59.1211 62.8725Z" fill="#2F2E41"/>
<path d="M219.42 51.9425C217.613 51.9427 215.861 52.5646 214.458 53.7039C213.056 54.8431 212.088 56.4303 211.718 58.1988C211.347 59.9674 211.597 61.8095 212.424 63.4158C213.252 65.0222 214.607 66.2948 216.262 67.0201C216.229 66.4148 216.275 65.8078 216.399 65.2145C216.55 64.5751 217.41 60.9251 217.41 60.9251C217.238 60.5333 217.152 60.1094 217.157 59.6815C217.157 58.5153 217.832 57.644 218.675 57.644C219.392 57.644 219.736 58.1815 219.736 58.8244C219.736 59.5445 219.276 60.6195 219.04 61.6172C218.994 61.802 218.991 61.9953 219.032 62.1814C219.074 62.3675 219.159 62.5412 219.28 62.6886C219.401 62.8359 219.555 62.9527 219.729 63.0297C219.904 63.1066 220.094 63.1414 220.284 63.1313C221.774 63.1313 222.778 61.2167 222.778 58.9473C222.778 57.2225 221.616 55.9332 219.504 55.9332C217.119 55.9332 215.629 57.7143 215.629 59.7026C215.606 60.2633 215.791 60.8128 216.149 61.2448C216.212 61.2967 216.257 61.3671 216.277 61.4461C216.297 61.525 216.292 61.6083 216.262 61.6839C216.223 61.828 216.139 62.1758 216.1 62.3163C216.093 62.3588 216.077 62.399 216.051 62.4337C216.026 62.4684 215.992 62.4966 215.954 62.5158C215.915 62.5351 215.873 62.5448 215.83 62.5444C215.787 62.5439 215.745 62.5331 215.707 62.513C214.607 62.0633 214.094 60.8619 214.094 59.5059C214.094 57.2717 215.981 54.5913 219.718 54.5913C222.722 54.5913 224.7 56.7658 224.7 59.0984C224.7 62.1863 222.982 64.4908 220.453 64.4908C219.603 64.4908 218.805 64.0306 218.531 63.5107C218.531 63.5107 218.074 65.3234 217.976 65.6747C217.794 66.2716 217.528 66.8394 217.186 67.3609C218.268 67.6805 219.406 67.7637 220.524 67.6048C221.641 67.4458 222.711 67.0484 223.661 66.4396C224.612 65.8307 225.42 65.0247 226.031 64.076C226.642 63.1274 227.042 62.0584 227.204 60.9416C227.366 59.8247 227.286 58.6861 226.969 57.603C226.652 56.5198 226.106 55.5175 225.368 54.664C224.629 53.8105 223.716 53.1257 222.69 52.6561C221.664 52.1866 220.548 51.9432 219.42 51.9425Z" fill="#3F3D56"/>
<path d="M175.106 26.1333L164.984 23.0194C164.856 22.9731 164.72 22.9525 164.583 22.9589C164.447 22.9653 164.314 22.9985 164.191 23.0566C164.067 23.1148 163.957 23.1967 163.865 23.2977C163.774 23.3987 163.703 23.5167 163.657 23.6451L160.536 33.7889C160.459 34.0639 160.491 34.358 160.624 34.6106C160.757 34.8632 160.982 35.0551 161.253 35.1469L171.371 38.2598C171.641 38.3313 171.928 38.2938 172.17 38.1553C172.412 38.0168 172.589 37.7885 172.664 37.5199L175.785 27.3762C175.826 27.2501 175.841 27.1169 175.829 26.9848C175.816 26.8527 175.777 26.7245 175.714 26.608C175.65 26.4916 175.563 26.3895 175.459 26.3078C175.354 26.2262 175.234 26.1668 175.106 26.1333ZM164.597 33.966L162.859 33.4315L164.521 28.0296L166.259 28.5642L164.597 33.966ZM165.703 27.4941L165.69 27.4902C165.441 27.4117 165.233 27.2375 165.112 27.0057C164.99 26.774 164.966 26.5036 165.044 26.2539C165.121 26.0042 165.295 25.7954 165.526 25.6734C165.758 25.5514 166.028 25.5261 166.278 25.603C166.528 25.6799 166.737 25.8528 166.86 26.0837C166.983 26.3147 167.009 26.5848 166.933 26.8351C166.857 27.0853 166.685 27.2952 166.454 27.4187C166.223 27.5422 165.953 27.5693 165.703 27.4941ZM170.947 35.9195L169.209 35.385L170.118 32.4314C170.336 31.7238 170.232 31.1625 169.603 30.9691C169.406 30.9102 169.195 30.9139 169 30.9796C168.806 31.0454 168.636 31.17 168.515 31.3363C168.426 31.4593 168.361 31.5977 168.323 31.7445L167.377 34.8212L165.639 34.2867L167.301 28.8849L169.039 29.4194L168.807 30.1711C169.05 29.9462 169.348 29.7907 169.672 29.721C169.995 29.6513 170.331 29.6699 170.645 29.775C171.785 30.1259 172.417 31.1431 171.918 32.7637L170.947 35.9195Z" fill="#3F3D56"/>
<path fill-rule="evenodd" clip-rule="evenodd" d="M19.9796 68.9042C19.9794 67.4051 19.5495 65.9375 18.7411 64.6751C17.9326 63.4127 16.7793 62.4084 15.4178 61.781C14.0562 61.1537 12.5434 60.9296 11.0584 61.1352C9.57346 61.3409 8.17852 61.9677 7.03874 62.9415C5.89897 63.9153 5.06209 65.1953 4.62717 66.6299C4.19226 68.0645 4.17753 69.5937 4.58473 71.0364C4.99192 72.4791 5.80399 73.775 6.9248 74.7706C8.04561 75.7661 9.42822 76.4197 10.9089 76.6539V71.1725H8.91655V68.9042H10.9089V67.1756C10.9089 65.2099 12.0804 64.1232 13.8722 64.1232C14.4606 64.1314 15.0476 64.1827 15.6285 64.2766V66.2073H14.6388C13.6648 66.2073 13.3601 66.8117 13.3601 67.433V68.9046H15.5357L15.1883 71.1728H13.3601V76.6546C15.2056 76.3624 16.8862 75.4212 18.0996 74.0005C19.3131 72.5797 19.9797 70.7726 19.9796 68.9042L19.9796 68.9042Z" fill="#3F3D56"/>
<path d="M230.866 161.714C230.866 161.79 230.835 161.863 230.782 161.916C230.728 161.97 230.656 162 230.58 162H0.285725C0.209946 162 0.137271 161.97 0.0836867 161.916C0.0301029 161.863 0 161.79 0 161.714C0 161.639 0.0301029 161.566 0.0836867 161.512C0.137271 161.459 0.209946 161.429 0.285725 161.429H230.58C230.656 161.429 230.728 161.459 230.782 161.513C230.835 161.566 230.866 161.639 230.866 161.714Z" fill="#3F3D56"/>
</g>
<defs>
<clipPath id="clip0">
<rect width="231" height="162" fill="white"/>
</clipPath>
</defs>
</svg>
