<svg width="201" height="161" viewBox="0 0 201 161" fill="none" xmlns="http://www.w3.org/2000/svg">
<g clip-path="url(#clip0)">
<path d="M12.1228 151.433C12.1228 151.433 3.56288 150.915 4.57136 156.936C4.57136 156.936 4.36886 157.999 5.33076 158.482C5.33076 158.482 5.34696 158.035 6.20964 158.188C6.51661 158.239 6.82864 158.254 7.13915 158.232C7.5595 158.203 7.95903 158.038 8.27724 157.761V157.761C8.27724 157.761 10.683 156.763 11.6206 152.817C11.6206 152.817 12.3132 151.955 12.2849 151.734L10.841 152.344C10.841 152.344 11.3331 153.39 10.9463 154.258C10.9463 154.258 10.8977 152.382 10.6202 152.429C10.5635 152.439 9.87097 152.793 9.87097 152.793C9.87097 152.793 10.7195 154.621 10.0735 155.938C10.0735 155.938 10.3165 153.693 9.59961 152.923L8.58708 153.52C8.58708 153.52 9.58139 155.402 8.90704 156.936C8.90704 156.936 9.07917 154.581 8.37444 153.664L7.45304 154.386C7.45304 154.386 8.38457 156.241 7.81553 157.513C7.81553 157.513 7.74262 154.772 7.25255 154.565C7.25255 154.565 6.44253 155.278 6.32305 155.581C6.32305 155.581 6.96297 156.926 6.56605 157.637C6.56605 157.637 6.32305 155.808 6.12459 155.808C6.12459 155.808 5.31456 157.017 5.23761 157.84C5.23761 157.84 5.27204 156.605 5.92816 155.684C5.46502 155.772 5.03763 155.993 4.69894 156.322C4.69894 156.322 4.82449 155.467 6.12661 155.392C6.12661 155.392 6.79084 154.475 6.96904 154.418C6.96904 154.418 5.673 154.311 4.88727 154.66C4.88727 154.66 5.57782 153.847 7.20598 154.219L8.11726 153.473C8.11726 153.473 6.41012 153.24 5.68717 153.498C5.68717 153.498 6.51948 152.784 8.36229 153.305L9.35255 152.711C9.35255 152.711 7.89653 152.396 7.0298 152.508C7.0298 152.508 7.94513 152.012 9.64214 152.549L10.3509 152.23C10.3509 152.23 9.2837 152.027 8.97184 151.986C8.65998 151.945 8.64378 151.866 8.64378 151.866C9.31912 151.753 10.0125 151.83 10.6466 152.09C10.6466 152.09 12.1492 151.529 12.1228 151.433Z" fill="#5375E2"/>
<path opacity="0.1" d="M6.22576 160.035C9.57206 160.035 12.2848 159.574 12.2848 159.006C12.2848 158.439 9.57206 157.978 6.22576 157.978C2.87946 157.978 0.166748 158.439 0.166748 159.006C0.166748 159.574 2.87946 160.035 6.22576 160.035Z" fill="#5375E2"/>
<path d="M200.076 137.76C200.076 137.76 195.248 137.467 195.823 140.861C195.793 141.033 195.819 141.211 195.896 141.367C195.973 141.524 196.098 141.653 196.252 141.734C196.252 141.734 196.252 141.482 196.746 141.568C196.92 141.596 197.096 141.605 197.271 141.592C197.508 141.577 197.733 141.484 197.913 141.328C197.913 141.328 199.27 140.765 199.798 138.54C199.798 138.54 200.187 138.055 200.173 137.931L199.363 138.28C199.363 138.28 199.64 138.869 199.422 139.361C199.422 139.361 199.395 138.302 199.239 138.327C199.207 138.327 198.814 138.53 198.814 138.53C198.814 138.53 199.294 139.546 198.933 140.302C198.933 140.302 199.069 139.038 198.666 138.603L198.091 138.938C198.091 138.938 198.652 140.001 198.271 140.867C198.271 140.867 198.371 139.538 197.972 139.022L197.451 139.428C197.451 139.428 197.978 140.473 197.654 141.192C197.654 141.192 197.611 139.646 197.336 139.53C197.139 139.697 196.962 139.887 196.811 140.097C196.811 140.097 197.172 140.855 196.949 141.257C196.949 141.257 196.811 140.227 196.698 140.223C196.698 140.223 196.246 140.903 196.2 141.371C196.22 140.937 196.355 140.517 196.588 140.152C196.327 140.201 196.086 140.327 195.896 140.513C195.896 140.513 195.967 140.03 196.706 139.987C196.706 139.987 197.081 139.471 197.182 139.438C197.182 139.438 196.451 139.377 196.007 139.574C196.007 139.574 196.398 139.119 197.315 139.327L197.828 138.906C197.828 138.906 196.866 138.774 196.459 138.92C196.459 138.92 196.929 138.514 197.965 138.81L198.524 138.475C198.095 138.381 197.655 138.343 197.216 138.363C197.216 138.363 197.731 138.083 198.688 138.386L199.093 138.205C199.093 138.205 198.486 138.087 198.318 138.069C198.15 138.05 198.132 138.002 198.132 138.002C198.513 137.938 198.904 137.982 199.262 138.128C199.262 138.128 200.09 137.813 200.076 137.76Z" fill="#5375E2"/>
<path opacity="0.1" d="M196.751 142.608C198.637 142.608 200.167 142.349 200.167 142.029C200.167 141.709 198.637 141.45 196.751 141.45C194.864 141.45 193.334 141.709 193.334 142.029C193.334 142.349 194.864 142.608 196.751 142.608Z" fill="#5375E2"/>
<path d="M190.149 146.999C190.149 146.999 184.321 146.648 185.017 150.748C184.982 150.957 185.013 151.171 185.106 151.36C185.199 151.549 185.35 151.704 185.536 151.803C185.536 151.803 185.536 151.498 186.143 151.6C186.353 151.635 186.565 151.646 186.777 151.63C187.063 151.61 187.334 151.498 187.551 151.309C187.551 151.309 189.189 150.631 189.825 147.944C189.825 147.944 190.297 147.357 190.278 147.207L189.294 147.629C189.294 147.629 189.63 148.34 189.367 148.932C189.367 148.932 189.335 147.654 189.146 147.684C189.108 147.684 188.634 147.93 188.634 147.93C188.634 147.93 189.213 149.172 188.776 150.072C188.776 150.072 188.942 148.544 188.454 148.021L187.761 148.428C187.761 148.428 188.438 149.71 187.98 150.755C187.98 150.755 188.097 149.151 187.615 148.519L186.99 149.009C186.99 149.009 187.624 150.273 187.237 151.139C187.237 151.139 187.186 149.273 186.852 149.133C186.852 149.133 186.303 149.617 186.22 149.818C186.22 149.818 186.656 150.734 186.386 151.218C186.386 151.218 186.22 149.974 186.085 149.968C186.085 149.968 185.538 150.791 185.477 151.356C185.504 150.834 185.667 150.328 185.949 149.889C185.633 149.949 185.342 150.1 185.11 150.324C185.11 150.324 185.196 149.743 186.082 149.692C186.082 149.692 186.534 149.066 186.656 149.027C186.656 149.027 185.773 148.954 185.238 149.192C185.238 149.192 185.71 148.643 186.818 148.893L187.437 148.385C187.437 148.385 186.275 148.225 185.783 148.401C185.783 148.401 186.35 147.916 187.605 148.269L188.28 147.863C188.28 147.863 187.289 147.65 186.7 147.727C186.7 147.727 187.322 147.39 188.478 147.755L188.96 147.538C188.96 147.538 188.233 147.394 188.023 147.371C187.812 147.349 187.798 147.29 187.798 147.29C188.257 147.213 188.729 147.266 189.161 147.442C189.161 147.442 190.165 147.064 190.149 146.999Z" fill="#5375E2"/>
<path opacity="0.1" d="M186.133 152.854C188.411 152.854 190.258 152.541 190.258 152.155C190.258 151.768 188.411 151.456 186.133 151.456C183.855 151.456 182.008 151.768 182.008 152.155C182.008 152.541 183.855 152.854 186.133 152.854Z" fill="#5375E2"/>
<path opacity="0.1" d="M163.284 150.572C173.61 150.572 181.982 149.261 181.982 147.644C181.982 146.026 173.61 144.715 163.284 144.715C152.958 144.715 144.587 146.026 144.587 147.644C144.587 149.261 152.958 150.572 163.284 150.572Z" fill="#5375E2"/>
<path opacity="0.1" d="M104.118 158.192C115.721 158.192 125.128 157.245 125.128 156.076C125.128 154.908 115.721 153.961 104.118 153.961C92.514 153.961 83.1074 154.908 83.1074 156.076C83.1074 157.245 92.514 158.192 104.118 158.192Z" fill="#5375E2"/>
<path opacity="0.1" d="M40.4635 156.091C49.2711 156.091 56.411 155.648 56.411 155.103C56.411 154.558 49.2711 154.115 40.4635 154.115C31.656 154.115 24.5161 154.558 24.5161 155.103C24.5161 155.648 31.656 156.091 40.4635 156.091Z" fill="#5375E2"/>
<path opacity="0.1" d="M68.7783 6.99429C74.6935 1.71108 83.9805 0.62802 92.4311 1.04864C118.978 2.37148 142.94 15.232 163.669 29.7791C171.174 35.0441 178.561 40.7195 183.432 47.9717C193.355 62.7322 190.406 83.1823 176.619 95.3438C171.927 99.481 166.241 102.659 160.403 105.465C150.022 110.466 138.821 114.479 127.042 115.625C118.64 116.438 110.134 115.778 101.783 114.64C78.446 111.462 55.5404 104.439 36.3427 92.4299C27.9225 87.1467 19.9842 80.6036 16.5133 72.0794C13.0423 63.5551 15.2638 52.753 23.8622 47.7075C27.4183 45.6207 31.6709 44.6778 35.8324 43.7939C41.9603 42.4914 48.1854 41.2071 53.7158 38.5574C59.4265 35.8223 66.1882 30.533 65.0562 24.4797C63.8452 17.9834 62.8712 12.2775 68.7783 6.99429Z" fill="#5375E2"/>
<path opacity="0.9" d="M117.795 79.6445V40.8454H123.06V29.263H85.333V40.8454H90.5982V79.6445C83.327 82.4155 77.0674 87.3395 72.6499 93.7632C68.2323 100.187 65.8657 107.806 65.864 115.611C65.864 136.856 83.0285 154.077 104.201 154.077C125.373 154.077 142.535 136.856 142.535 115.611C142.533 107.806 140.166 100.185 135.747 93.7616C131.328 87.3378 125.067 82.4143 117.795 79.6445V79.6445Z" fill="#96B7FE"/>
<path opacity="0.1" d="M118.012 40.5285H90.8071V41.0507H118.012V40.5285Z" fill="black"/>
<path d="M82.751 114.579C82.751 114.579 105.837 114.172 117.38 108.375C128.923 102.578 135.518 107.753 134.899 111.271C134.279 114.788 130.984 121.609 117.793 122.447C104.601 123.284 82.751 114.579 82.751 114.579Z" fill="#5375E2"/>
<path opacity="0.1" d="M82.751 114.579C82.751 114.579 105.837 114.172 117.38 108.375C128.923 102.578 135.518 107.753 134.899 111.271C134.279 114.788 130.984 121.609 117.793 122.447C104.601 123.284 82.751 114.579 82.751 114.579Z" fill="black"/>
<path d="M72.8647 110.86C72.8647 110.86 70.3982 145.191 102.749 145.811C135.099 146.43 134.901 111.267 134.901 111.267C134.901 111.267 122.953 124.294 94.7112 113.54C94.7112 113.549 80.078 109.619 72.8647 110.86Z" fill="#5375E2"/>
<path opacity="0.1" d="M134.795 111.391C134.149 119.299 129.96 144.055 102.761 143.533C76.0987 143.027 73.0794 119.638 72.8424 111.411C72.6946 115.826 72.8262 145.234 102.755 145.809C135.113 146.418 134.907 111.265 134.907 111.265C134.907 111.265 134.866 111.315 134.795 111.391Z" fill="black"/>
<path opacity="0.3" d="M102.945 100.259C105.264 100.259 107.143 98.3733 107.143 96.0468C107.143 93.7204 105.264 91.8345 102.945 91.8345C100.627 91.8345 98.7471 93.7204 98.7471 96.0468C98.7471 98.3733 100.627 100.259 102.945 100.259Z" fill="#5375E2"/>
<path opacity="0.3" d="M105.343 81.8025C106.778 81.8025 107.941 80.6353 107.941 79.1955C107.941 77.7556 106.778 76.5884 105.343 76.5884C103.908 76.5884 102.745 77.7556 102.745 79.1955C102.745 80.6353 103.908 81.8025 105.343 81.8025Z" fill="#5375E2"/>
<path opacity="0.3" d="M99.5452 66.7555C100.98 66.7555 102.143 65.5883 102.143 64.1485C102.143 62.7086 100.98 61.5414 99.5452 61.5414C98.1103 61.5414 96.947 62.7086 96.947 64.1485C96.947 65.5883 98.1103 66.7555 99.5452 66.7555Z" fill="#5375E2"/>
<path opacity="0.2" d="M77.2835 99.296C77.0608 101.072 77.1053 103.295 78.6869 104.124C77.3605 103.429 82.7977 95.549 82.0262 93.9397C80.3758 90.5056 77.486 97.646 77.2835 99.296Z" fill="white"/>
<path opacity="0.3" d="M97.445 21.5211C99.7635 21.5211 101.643 19.6352 101.643 17.3087C101.643 14.9823 99.7635 13.0964 97.445 13.0964C95.1266 13.0964 93.2471 14.9823 93.2471 17.3087C93.2471 19.6352 95.1266 21.5211 97.445 21.5211Z" fill="#5375E2"/>
<path opacity="0.3" d="M110.039 13.2183C111.763 13.2183 113.16 11.8164 113.16 10.087C113.16 8.35761 111.763 6.95567 110.039 6.95567C108.316 6.95567 106.918 8.35761 106.918 10.087C106.918 11.8164 108.316 13.2183 110.039 13.2183Z" fill="#5375E2"/>
<path opacity="0.3" d="M101.044 3.28994C101.94 3.28994 102.666 2.56122 102.666 1.6623C102.666 0.763385 101.94 0.034668 101.044 0.034668C100.148 0.034668 99.4216 0.763385 99.4216 1.6623C99.4216 2.56122 100.148 3.28994 101.044 3.28994Z" fill="#5375E2"/>
<path opacity="0.9" d="M57.6404 53.513H23.7144V63.61H28.8844V142.383C28.8639 143.95 29.1539 145.506 29.7374 146.96C30.321 148.414 31.1866 149.737 32.2839 150.852C33.3812 151.968 34.6884 152.854 36.1296 153.458C37.5708 154.063 39.1173 154.374 40.6794 154.374C42.2415 154.374 43.788 154.063 45.2292 153.458C46.6704 152.854 47.9776 151.968 49.0749 150.852C50.1722 149.737 51.0378 148.414 51.6213 146.96C52.2049 145.506 52.4949 143.95 52.4744 142.383V63.61H57.6404V53.513Z" fill="#96B7FE"/>
<path d="M36.7434 81.4571C36.7434 81.4571 45.1393 78.4477 47.4763 80.5874C47.4763 80.5874 44.0762 85.6024 40.9454 85.4012C37.8147 85.2 36.7434 81.4571 36.7434 81.4571Z" fill="#5375E2"/>
<path opacity="0.1" d="M36.7434 81.4571C36.7434 81.4571 45.1393 78.4477 47.4763 80.5874C47.4763 80.5874 44.0762 85.6024 40.9454 85.4012C37.8147 85.2 36.7434 81.4571 36.7434 81.4571Z" fill="black"/>
<path d="M47.4723 80.5955V137.768C47.4723 138.716 47.2862 139.655 46.9245 140.532C46.5628 141.408 46.0327 142.204 45.3643 142.875C44.696 143.545 43.9026 144.077 43.0294 144.44C42.1562 144.803 41.2204 144.99 40.2752 144.99C38.3664 144.99 36.5358 144.229 35.1861 142.875C33.8364 141.52 33.0781 139.683 33.0781 137.768V80.5955C33.0781 80.5955 36.543 79.6588 39.8074 81.6664C43.0718 83.674 47.4723 80.5955 47.4723 80.5955Z" fill="#5375E2"/>
<path opacity="0.1" d="M52.4702 63.547H28.8801V64.0123H52.4702V63.547Z" fill="black"/>
<path opacity="0.1" d="M40.2752 141.513C39.3299 141.513 38.3939 141.326 37.5205 140.963C36.6472 140.6 35.8537 140.068 35.1854 139.397C34.5171 138.726 33.987 137.93 33.6254 137.053C33.2638 136.177 33.0779 135.238 33.0781 134.289V137.9C33.0781 139.815 33.8364 141.652 35.1861 143.007C36.5358 144.361 38.3664 145.122 40.2752 145.122C42.184 145.122 44.0146 144.361 45.3643 143.007C46.7141 141.652 47.4723 139.815 47.4723 137.9V134.289C47.4726 135.238 47.2866 136.177 46.9251 137.053C46.5635 137.93 46.0334 138.726 45.3651 139.397C44.6967 140.068 43.9032 140.6 43.0299 140.963C42.1566 141.326 41.2205 141.513 40.2752 141.513V141.513Z" fill="black"/>
<path opacity="0.3" d="M40.2772 74.9811C41.0869 74.9811 41.7433 74.3224 41.7433 73.5099C41.7433 72.6974 41.0869 72.0387 40.2772 72.0387C39.4675 72.0387 38.811 72.6974 38.811 73.5099C38.811 74.3224 39.4675 74.9811 40.2772 74.9811Z" fill="#5375E2"/>
<path opacity="0.3" d="M45.0747 69.2305C45.5903 69.2305 46.0082 68.8111 46.0082 68.2938C46.0082 67.7764 45.5903 67.357 45.0747 67.357C44.5591 67.357 44.1411 67.7764 44.1411 68.2938C44.1411 68.8111 44.5591 69.2305 45.0747 69.2305Z" fill="#5375E2"/>
<path opacity="0.3" d="M38.5439 67.359C39.0595 67.359 39.4775 66.9396 39.4775 66.4223C39.4775 65.9049 39.0595 65.4855 38.5439 65.4855C38.0283 65.4855 37.6104 65.9049 37.6104 66.4223C37.6104 66.9396 38.0283 67.359 38.5439 67.359Z" fill="#5375E2"/>
<path opacity="0.2" d="M30.7068 92.2755C30.4841 94.0514 30.5286 96.2744 32.1102 97.1035C30.7818 96.4086 36.2211 88.5305 35.4496 86.9191C33.7951 83.4891 30.9094 90.6275 30.7068 92.2755Z" fill="white"/>
<path opacity="0.3" d="M43.3189 47.1955C45.2862 47.1955 46.881 45.5952 46.881 43.6212C46.881 41.6471 45.2862 40.0469 43.3189 40.0469C41.3516 40.0469 39.7568 41.6471 39.7568 43.6212C39.7568 45.5952 41.3516 47.1955 43.3189 47.1955Z" fill="#5375E2"/>
<path opacity="0.3" d="M32.6327 40.1505C34.0956 40.1505 35.2815 38.9605 35.2815 37.4926C35.2815 36.0247 34.0956 34.8347 32.6327 34.8347C31.1698 34.8347 29.9839 36.0247 29.9839 37.4926C29.9839 38.9605 31.1698 40.1505 32.6327 40.1505Z" fill="#5375E2"/>
<path opacity="0.3" d="M40.2652 31.7258C41.0258 31.7258 41.6423 31.1072 41.6423 30.344C41.6423 29.5809 41.0258 28.9623 40.2652 28.9623C39.5047 28.9623 38.8882 29.5809 38.8882 30.344C38.8882 31.1072 39.5047 31.7258 40.2652 31.7258Z" fill="#5375E2"/>
<path d="M181.585 91.7431C181.585 91.7431 178.476 76.2307 179.665 74.3003C179.665 74.3003 179.707 72.5061 179.637 70.2201C179.637 70.1327 179.637 70.0453 179.637 69.9559C179.845 70.0984 180.063 70.2261 180.289 70.3379C181.384 70.9049 182.643 71.0681 183.847 70.7992L182.901 69.7466C182.676 69.4946 182.439 69.2244 182.391 68.8911C182.378 68.5706 182.448 68.2521 182.593 67.9666C183.486 65.7009 183.541 62.85 181.812 61.1208C180.358 59.6659 180.001 57.7883 178.43 56.4614C177.275 55.488 176.642 54.0616 176.042 52.6859C175.536 51.5195 175.03 50.345 174.736 49.1096C174.509 48.1444 174.42 47.1467 174.108 46.2038C173.796 45.261 173.217 44.3445 172.308 43.9239C171.971 43.8057 171.644 43.6603 171.33 43.4891C170.941 43.2269 170.708 42.8002 170.429 42.4284C169.011 40.5366 164.232 41.6501 161.972 42.4182C161.358 42.6113 160.79 42.9272 160.301 43.3468L160.321 43.3123L160.378 43.229C160.132 43.4296 159.918 43.6683 159.746 43.9361C159.416 44.4604 159.279 45.0761 159.005 45.6288C158.673 46.2993 156.83 48.1708 157.622 48.9247C157.676 48.9751 157.739 49.0163 157.806 49.0466C158.102 49.1677 158.426 49.2002 158.74 49.1401C158.728 49.1665 158.716 49.1929 158.705 49.2193C158.436 49.8847 158.299 50.5962 158.3 51.3143C158.314 52.8176 158.922 54.2539 159.99 55.3076C161.059 56.3612 162.501 56.9458 163.999 56.9328C164.591 56.9337 165.18 56.8432 165.745 56.6646C165.759 56.7357 165.771 56.8068 165.783 56.8779C165.783 56.9084 165.783 56.9369 165.797 56.9653L165.698 57.1055L165.682 57.0791L162.727 61.2244C162.276 61.5414 159.673 63.4312 159.534 64.8475C159.38 66.3979 159.226 68.2145 159.226 68.2145L159.206 68.6026C159.077 68.7107 158.926 68.7895 158.764 68.8337C158.602 68.8779 158.432 68.8864 158.266 68.8586C157.345 68.7062 157.345 72.2643 157.345 72.2643C157.345 72.2643 156.737 72.8312 156.31 72.3395C155.883 71.8477 154.775 73.5119 154.775 73.5119L147.79 73.8147H147.63L147.254 72.6443C147.212 72.5234 147.126 72.4232 147.013 72.3648C146.9 72.3065 146.768 72.2945 146.646 72.3313C146.617 72.3395 146.588 72.3511 146.561 72.3659L146.537 72.3821C146.52 72.392 146.503 72.4035 146.488 72.4167C146.479 72.423 146.47 72.4305 146.462 72.439C146.448 72.4509 146.435 72.4638 146.423 72.4776C146.416 72.4861 146.409 72.4949 146.403 72.504L146.391 72.5162C146.348 72.5764 146.319 72.646 146.307 72.7194C146.295 72.7928 146.3 72.8679 146.322 72.9389L146.646 73.9427C145.3 74.215 143.92 74.9811 145.044 77.0943L139.35 76.0397L141.193 77.5902L150.711 79.5612C150.585 79.7888 150.668 80.1159 151.061 80.5772C152.752 82.5726 155.842 83.1131 157.083 83.2554C157.41 83.9892 157.817 84.6838 158.298 85.326L158.189 87.3133C158.189 87.3133 155.046 102.47 154.469 103.24C154.754 102.907 155.015 102.554 155.249 102.183C154.335 105.299 153.06 109.562 152.725 110.2C152.187 111.216 151.689 115.345 152.302 115.611C152.495 115.692 153.027 115.654 153.795 115.595V115.936L153.76 128.89C153.76 128.89 153.914 136.837 153.491 137.593C153.068 138.349 152.954 139.938 152.954 139.938C152.954 139.938 151.257 143.074 149.917 144.333L149.886 144.36L149.844 144.063C149.844 144.063 148.224 146.107 144.664 145.993C144.664 145.993 142.515 147.394 145.7 147.469C148.886 147.544 152.952 147.355 152.952 147.355C152.952 147.355 155.787 143.004 158.171 143.571V146.863H158.9V143.543C159.238 143.319 159.527 143.029 159.75 142.69C159.973 142.351 160.124 141.97 160.196 141.57C160.259 141.159 160.214 140.738 160.065 140.35C159.916 139.962 159.669 139.62 159.347 139.357C159.203 139.226 159.087 139.066 159.007 138.888C158.927 138.709 158.884 138.516 158.882 138.321L158.855 138.343C158.855 138.278 158.839 138.211 158.829 138.14C158.627 136.437 158.361 132.934 159.285 130.337C160.55 126.779 160.935 121.825 160.014 118.872C159.717 117.93 159.474 116.971 159.285 116.001C159.262 115.877 159.24 115.761 159.222 115.652C159.853 115.738 160.477 115.866 161.091 116.036C163.229 116.625 167.901 116.735 171.891 116.704C171.901 116.814 171.913 116.928 171.925 117.044C171.998 117.842 172.149 118.631 172.375 119.401C172.873 120.917 173.104 127.573 173.104 127.573C173.104 127.573 173.75 133.05 173.397 135.281C173.195 136.52 173.025 137.764 172.913 139.014V139.038C172.913 139.038 171.856 142.064 171.091 143.712C171.071 143.754 171.052 143.795 171.032 143.836C170.825 143.855 170.621 143.899 170.425 143.968C170.425 143.968 169.39 146.048 168.353 146.39C167.316 146.731 167.662 147.865 170.003 147.448C172.344 147.032 175.876 146.693 175.876 146.693L176.03 144.573L176.749 143.671L176.567 145.784L177.334 145.634L177.233 143.061L178.409 141.584C178.409 141.584 179.827 140.316 177.719 137.821V137.874C177.697 137.837 177.674 137.8 177.65 137.766V137.754C177.302 137.209 177.022 136.195 177.533 134.395C178.454 131.144 178.991 128.191 178.991 128.191C178.991 128.191 181.05 120.285 178.573 116.542H178.685C178.431 116.015 178.251 115.456 178.15 114.879C178.138 114.81 178.128 114.739 178.116 114.676C179.938 114.571 181.747 114.237 183.211 113.522C183.195 113.5 182.314 94.7321 181.585 91.7431ZM158.331 78.657V78.6935L157.952 78.7118L158.331 78.657ZM157.041 78.8358C156.979 78.8491 156.92 78.8769 156.871 78.9171C156.709 79.147 156.608 79.4139 156.575 79.6933L155.988 79.5592C155.988 79.5592 155.583 79.4718 154.975 79.3743L154.694 79.0918C155.475 79.0186 156.277 78.9313 157.041 78.8358V78.8358Z" fill="url(#paint0_linear)"/>
<path d="M176.471 143.08L176.247 145.758L176.998 145.605L176.884 142.704L176.471 143.08Z" fill="#1D2366"/>
<path d="M159.337 130.373C158.432 132.96 158.691 136.453 158.894 138.15C158.969 138.778 159.038 139.166 159.038 139.166C159.038 139.166 157.685 142.259 157.571 142.372C157.458 142.486 153.586 144.856 153.586 144.856L150.881 146.439C150.881 146.439 148.137 145.232 149.463 144.813C149.732 144.704 149.973 144.539 150.172 144.327C151.484 143.071 153.147 139.948 153.147 139.948C153.147 139.948 153.258 138.365 153.671 137.611C154.084 136.858 153.934 128.939 153.934 128.939L153.969 116.028V114.345L159.117 114.384C159.15 114.955 159.224 115.524 159.339 116.084C159.525 117.051 159.764 118.006 160.056 118.945C160.951 121.894 160.577 126.828 159.337 130.373Z" fill="#FFB0B1"/>
<path opacity="0.1" d="M159.036 139.166C159.036 139.166 157.683 142.259 157.569 142.372C157.456 142.486 153.586 144.856 153.586 144.856L150.881 146.439C150.881 146.439 148.137 145.232 149.463 144.813C149.732 144.704 149.973 144.539 150.172 144.327L150.289 145.152L151.192 145.114L158.894 138.15C158.967 138.776 159.036 139.166 159.036 139.166Z" fill="black"/>
<path d="M158.942 138.329L151.182 145.343L150.279 145.38L150.093 144.061C150.093 144.061 148.513 146.093 145.018 145.983C145.018 145.983 142.914 147.379 146.03 147.455C149.147 147.53 153.134 147.341 153.134 147.341C153.134 147.341 155.915 143.004 158.244 143.571V146.851H158.959V143.533C159.291 143.308 159.575 143.018 159.793 142.68C160.011 142.343 160.158 141.964 160.226 141.568C160.289 141.159 160.245 140.742 160.099 140.355C159.954 139.969 159.712 139.626 159.396 139.361C159.254 139.229 159.141 139.069 159.063 138.892C158.985 138.714 158.944 138.523 158.942 138.329V138.329Z" fill="#1D2366"/>
<path d="M177.186 134.407C176.686 136.201 176.959 137.211 177.3 137.754V137.766C177.742 138.437 178.05 139.189 178.205 139.979L178.237 140.149L174.706 145.315L172.79 146.069C172.79 146.069 169.708 145.014 170.271 144.711C170.412 144.636 170.633 144.246 170.878 143.695C171.633 142.07 172.67 139.05 172.67 139.05V139.024C172.778 137.778 172.952 136.539 173.144 135.303C173.488 133.082 172.857 127.624 172.857 127.624C172.857 127.624 172.632 120.99 172.142 119.48C171.921 118.713 171.774 117.926 171.702 117.131C171.601 116.182 171.579 115.408 171.579 115.408C171.579 115.408 173.604 112.579 177.328 115.633C177.624 115.879 177.885 116.164 178.104 116.481C180.673 120.138 178.606 128.228 178.606 128.228C178.606 128.228 178.087 131.166 177.186 134.407Z" fill="#FFB0B1"/>
<path opacity="0.1" d="M178.237 140.139L174.706 145.305L172.79 146.059C172.79 146.059 169.708 145.004 170.271 144.701C170.412 144.626 170.633 144.236 170.878 143.685C172.182 143.685 172.859 144.921 172.859 144.921L174.511 144.659C174.511 144.659 176.692 140.359 177.18 140.097C177.668 139.835 177.255 138.134 177.255 138.134V137.701L177.294 137.748V137.76C177.739 138.433 178.048 139.187 178.205 139.979L178.237 140.139Z" fill="black"/>
<path d="M172.976 145.041C172.976 145.041 172.036 143.307 170.234 143.947C170.234 143.947 169.222 146.022 168.209 146.361C167.197 146.701 167.533 147.83 169.829 147.416C172.126 147.001 175.578 146.662 175.578 146.662L175.728 144.551L178.057 141.572C178.057 141.572 179.448 140.308 177.381 137.821V138.254C177.381 138.254 177.786 139.95 177.306 140.214C176.826 140.479 174.639 144.776 174.639 144.776L172.976 145.041Z" fill="#1D2366"/>
<path opacity="0.1" d="M159.111 114.386C159.144 114.957 159.218 115.526 159.333 116.086C157.213 115.774 155.247 115.93 153.959 116.03V114.347L159.111 114.386Z" fill="black"/>
<path opacity="0.1" d="M178.312 116.95C178.312 116.95 175.299 117.096 171.71 117.127C171.609 116.178 171.587 115.404 171.587 115.404C171.587 115.404 173.612 112.575 177.336 115.629C177.632 115.874 177.893 116.16 178.112 116.477C178.17 116.638 178.237 116.796 178.312 116.95V116.95Z" fill="black"/>
<path d="M178.312 116.611C178.312 116.611 165.123 117.251 161.099 116.121C157.075 114.991 153.096 115.969 152.495 115.704C151.893 115.44 152.383 111.332 152.9 110.314C153.416 109.296 156.32 99.0014 156.32 99.0014L159.1 84.4461L162.033 83.6333L162.235 83.5764L167.34 82.154L171.085 81.1177C171.085 81.1177 178.525 110.265 177.885 112.411C177.653 113.234 177.616 114.1 177.778 114.94C177.878 115.519 178.058 116.082 178.312 116.611V116.611Z" fill="#1D2366"/>
<path d="M149.416 74.4914C149.416 74.4914 146.784 77.3199 148.777 78.9028C150.769 80.4858 152.084 79.0552 152.084 79.0552L149.416 74.4914Z" fill="#C7DAF5"/>
<path opacity="0.1" d="M149.416 74.4914C149.416 74.4914 146.784 77.3199 148.777 78.9028C150.769 80.4858 152.084 79.0552 152.084 79.0552L149.416 74.4914Z" fill="black"/>
<path d="M170.704 55.866C170.704 55.866 170.396 56.1586 169.93 56.5955C169.268 57.2153 168.288 58.1236 167.417 58.8856C166.202 59.9382 165.22 60.7144 165.574 60.0499C165.929 59.3854 165.862 58.2435 165.686 57.1685L165.649 56.9552C165.502 56.1658 165.308 55.386 165.066 54.6204C165.066 54.6204 167.012 52.0966 168.09 51.101C168.495 50.7291 168.772 50.5706 168.786 50.8307C168.806 51.1843 169.072 51.9564 169.394 52.7936C169.406 52.818 169.416 52.8444 169.426 52.8688C169.645 53.4317 169.89 54.0189 170.107 54.5208C170.437 55.291 170.704 55.866 170.704 55.866Z" fill="#FFB0B1"/>
<path opacity="0.1" d="M169.424 52.8688C169.241 53.856 168.797 54.7758 168.139 55.5322C167.481 56.2885 166.632 56.8536 165.682 57.1685C165.533 56.3061 165.326 55.4548 165.062 54.6204C165.062 54.6204 168.726 49.8696 168.782 50.8307C168.817 51.1965 169.088 52.0052 169.424 52.8688Z" fill="black"/>
<path opacity="0.1" d="M165.321 58.4385L165.795 57.77C165.795 57.77 166.109 59.6923 167.266 58.8449C168.422 57.9976 168.481 65.2254 168.481 65.2254L167.237 83.8345L158.274 83.296L158.527 74.3044L159.54 69.7791L162.049 63.1893L163.552 61.0131L165.321 58.4385Z" fill="black"/>
<path d="M168.476 65.3392L167.355 82.1642L167.237 83.9463L162.239 83.6476L162.037 83.6354L158.268 83.4098L158.521 74.4162L159.534 69.8929L162.043 63.3032L163.551 61.1249L165.327 58.5523L165.801 57.8818C165.801 57.8818 166.115 59.8061 167.272 58.9567L167.294 58.9404C168.422 58.213 168.476 65.3392 168.476 65.3392Z" fill="#1D2366"/>
<path d="M159.673 68.308C159.673 68.308 159.224 69.2508 158.321 69.1005C157.417 68.9501 157.419 72.4939 157.419 72.4939C157.419 72.4939 156.812 73.0588 156.407 72.5691C156.002 72.0794 154.904 73.7375 154.904 73.7375L148.066 74.0403C148.066 74.0403 151.103 75.4342 150.508 79.6588C150.508 79.6588 160.836 79.0166 161.18 78.0331C161.524 77.0497 159.673 68.308 159.673 68.308Z" fill="white"/>
<path opacity="0.03" d="M159.673 68.308C159.673 68.308 159.224 69.2508 158.321 69.1005C157.417 68.9501 157.419 72.4939 157.419 72.4939C157.419 72.4939 156.812 73.0588 156.407 72.5691C156.002 72.0794 154.904 73.7375 154.904 73.7375L148.066 74.0403C148.066 74.0403 151.103 75.4342 150.508 79.6588C150.508 79.6588 160.836 79.0166 161.18 78.0331C161.524 77.0497 159.673 68.308 159.673 68.308Z" fill="black"/>
<path d="M139.795 76.2632L141.6 77.8096L156.444 80.9389L154.601 79.0552L139.795 76.2632Z" fill="white"/>
<path d="M165.348 59.0319C165.102 59.4017 164.398 61.3443 163.806 63.0329C163.316 64.439 162.905 65.6745 162.905 65.6745C162.905 65.6745 161.947 71.9351 161.459 73.0649C160.971 74.1947 161.235 78.6123 161.235 78.6123L159.412 89.5099C159.412 89.5099 158.586 95.1284 157.31 98.4832C156.059 101.777 154.641 103.328 154.603 103.374C155.168 102.608 158.248 87.5023 158.248 87.5023L159.26 68.4583C159.26 68.4583 159.41 66.6499 159.562 65.1035C159.714 63.5571 162.755 61.4459 162.755 61.4459L165.696 57.2498C165.998 57.6623 165.799 58.3532 165.348 59.0319Z" fill="white"/>
<path d="M157.679 83.5033C157.679 83.5033 153.357 83.3163 151.253 80.7885C149.149 78.2607 156.101 79.7725 156.101 79.7725L157.903 80.1789L157.679 83.5033Z" fill="#FFB0B1"/>
<path opacity="0.1" d="M177.899 112.425C177.667 113.248 177.631 114.115 177.792 114.955C173.069 115.292 168.017 114.008 168.017 114.008C167.077 114.875 164.597 116.158 164.597 116.158L163.244 99.3387C162.381 97.0751 162.043 85.198 162.043 85.198C162.043 85.198 162.12 84.5762 162.245 83.6455C162.245 83.6232 162.245 83.5988 162.256 83.5765C162.594 80.9755 163.268 76.0926 163.588 75.4322C164.04 74.5279 162.199 72.116 162.199 72.116L163.035 64.947L163.137 64.0834C164.904 63.291 166.257 60.7652 166.257 60.7652L167.294 58.9364C168.426 58.2089 168.481 65.3352 168.481 65.3352L167.359 82.1601L171.103 81.1238C171.103 81.1238 178.537 110.275 177.899 112.425Z" fill="black"/>
<path d="M182.747 113.593C177.599 116.158 168.242 113.782 168.242 113.782C167.302 114.65 164.821 115.932 164.821 115.932L163.468 99.1131C162.606 96.8515 162.268 84.9745 162.268 84.9745C162.268 84.9745 163.357 76.1129 163.807 75.2086C163.938 74.9445 163.875 74.5523 163.72 74.1297C162.951 72.1152 162.669 69.9469 162.895 67.802L163.256 64.7235L163.357 63.8599C165.123 63.0674 166.476 60.5396 166.476 60.5396L167.417 58.8856L169.151 55.8376L169.971 54.3948L170.109 54.5208L171.174 55.4881C171.174 55.4881 171.625 55.8619 172.302 56.437C173.776 57.6826 176.324 59.8772 177.636 61.2183C178.792 62.403 179.157 67.0014 179.256 70.4639C179.327 72.7418 179.284 74.5279 179.284 74.5279C178.118 76.4502 181.161 91.9117 181.161 91.9117C181.882 94.8906 182.747 113.593 182.747 113.593Z" fill="white"/>
<path opacity="0.03" d="M172.867 60.5031C172.867 60.5031 169.333 67.2534 169.748 69.8157C170.163 72.3781 171.326 75.2838 170.761 75.9625C170.567 76.2195 170.318 76.4281 170.03 76.5719C169.743 76.7158 169.427 76.791 169.106 76.7916C168.543 76.8302 167.039 77.8848 167.039 77.9986C167.039 78.1124 165.649 78.1124 164.406 78.6407C163.163 79.169 161.324 79.4698 161.324 79.4698C161.324 79.4698 157.754 79.356 157.416 79.6953C157.077 80.0347 156.739 82.0707 157.454 83.6923C158.169 85.3138 158.957 86.5208 159.558 86.7403C160.16 86.9597 163.954 85.6857 167.035 85.3829C170.115 85.0801 173.474 82.6376 173.474 82.6376C173.474 82.6376 177.156 81.3168 177.796 79.0918C178.436 76.8668 177.006 64.6504 177.006 64.6504C177.006 64.6504 175.904 58.9567 172.867 60.5031Z" fill="black"/>
<path opacity="0.03" d="M172.413 59.9382C172.413 59.9382 168.881 66.6864 169.295 69.2508C169.708 71.8152 170.872 74.719 170.307 75.3976C170.114 75.6546 169.864 75.8632 169.577 76.0071C169.29 76.1509 168.973 76.2261 168.653 76.2267C168.09 76.2653 166.587 77.3199 166.587 77.4337C166.587 77.5475 165.196 77.5455 163.954 78.0738C162.713 78.6021 160.872 78.9028 160.872 78.9028C160.872 78.9028 157.302 78.7911 156.964 79.1304C156.626 79.4698 156.287 81.5058 157.002 83.1274C157.717 84.7489 158.505 85.9559 159.106 86.1754C159.708 86.3949 163.503 85.1188 166.585 84.818C169.667 84.5173 173.015 82.0667 173.015 82.0667C173.015 82.0667 176.696 80.7479 177.336 78.5229C177.976 76.2978 176.546 64.0814 176.546 64.0814C176.546 64.0814 175.457 58.3918 172.413 59.9382Z" fill="black"/>
<path d="M172.751 60.1637C172.751 60.1637 169.222 66.914 169.627 69.4682C170.032 72.0225 171.204 74.9364 170.639 75.6151C170.446 75.8724 170.196 76.0812 169.909 76.2251C169.622 76.369 169.306 76.444 168.985 76.4441C168.422 76.4827 166.919 77.5373 166.919 77.6511C166.919 77.7649 165.528 77.7649 164.286 78.2932C163.045 78.8216 161.204 79.1223 161.204 79.1223C161.204 79.1223 157.634 79.0085 157.296 79.3478C156.958 79.6872 156.62 81.7233 157.334 83.3448C158.049 84.9663 158.837 86.1733 159.438 86.3928C160.04 86.6123 163.835 85.3382 166.917 85.0354C169.999 84.7326 173.343 82.2841 173.343 82.2841C173.343 82.2841 177.024 80.9633 177.664 78.7382C178.304 76.5132 176.874 64.2968 176.874 64.2968C176.874 64.2968 175.795 58.6173 172.751 60.1637Z" fill="white"/>
<path opacity="0.1" d="M172.676 78.2628C172.676 78.2628 169.858 77.6979 170.836 78.6407C171.814 79.5836 171.812 80.4126 173.015 80.374C174.217 80.3354 172.676 78.2628 172.676 78.2628Z" fill="black"/>
<path opacity="0.1" d="M177.45 98.5869C177.45 98.5869 176.172 99.4545 178.614 101.452C181.056 103.449 177.45 98.5869 177.45 98.5869Z" fill="black"/>
<path opacity="0.1" d="M175.005 105.713C175.005 105.827 174.556 109.86 176.246 110.878C177.937 111.897 175.005 105.713 175.005 105.713Z" fill="black"/>
<path d="M148.175 74.0362C146.814 74.0829 143.868 74.5015 145.395 77.3585C146.745 79.8863 149.014 78.1977 150.283 76.9135C149.973 75.719 149.219 74.6892 148.175 74.0362V74.0362Z" fill="#FFB0B1"/>
<path d="M150.306 76.8912C150.326 76.8729 150.344 76.8525 150.363 76.8343C150.344 76.8525 150.326 76.8729 150.306 76.8912Z" fill="#FFB0B1"/>
<path opacity="0.1" d="M172.302 56.5488C170.856 57.5404 169.643 58.3776 169.408 58.5523C168.758 59.0319 167.518 61.8604 166.729 63.3032C166.093 64.4655 164.033 64.7642 163.256 64.8373L163.349 63.9819C165.115 63.1914 166.467 60.6636 166.467 60.6636L169.963 54.5188L171.166 55.612C171.166 55.612 171.625 55.9758 172.302 56.5488Z" fill="black"/>
<path d="M172.302 56.437C170.856 57.4266 169.643 58.2658 169.408 58.4385C168.758 58.9201 167.518 61.7466 166.729 63.1894C166.093 64.3517 164.033 64.6504 163.256 64.7235L163.357 63.8599C165.123 63.0674 166.475 60.5396 166.475 60.5396L169.971 54.3948L171.174 55.4881C171.174 55.4881 171.625 55.8538 172.302 56.437Z" fill="#DCE7FF"/>
<path d="M169.519 51.6232C169.521 52.0167 169.479 52.4091 169.396 52.7936C169.245 53.5121 168.953 54.1932 168.537 54.7972C167.781 55.9011 166.655 56.6963 165.364 57.0386C164.074 57.3809 162.703 57.2476 161.502 56.6629C160.301 56.0781 159.349 55.0807 158.818 53.8516C158.287 52.6225 158.212 51.2431 158.608 49.9637C159.004 48.6843 159.844 47.5897 160.975 46.8785C162.107 46.1673 163.455 45.8866 164.775 46.0874C166.095 46.2881 167.299 46.957 168.17 47.9727C169.04 48.9884 169.519 50.2835 169.519 51.6232V51.6232Z" fill="#FFB0B1"/>
<path opacity="0.1" d="M179.262 70.4639C178.498 69.9918 177.875 69.3204 177.462 68.5213C177.148 67.8975 176.939 67.1802 176.4 66.7352C175.919 66.341 175.266 66.2434 174.669 66.0667C172.691 65.4794 171.024 63.6648 170.967 61.5962C170.939 60.6229 171.241 59.6496 171.103 58.6864C171.025 58.1398 170.808 57.6226 170.473 57.1848C170.309 56.9737 170.128 56.7772 169.93 56.5975C169.667 56.3476 169.39 56.1058 169.151 55.8396C168.996 55.6762 168.86 55.4955 168.746 55.3011C168.656 55.1417 168.584 54.9735 168.529 54.7992C168.16 53.645 168.495 52.2714 168.081 51.103C168.081 51.0827 168.067 51.0603 168.059 51.04C167.901 50.6234 167.583 50.2089 167.144 50.1764C166.704 50.1439 166.322 50.5117 165.9 50.6783C165.018 51.0217 164.064 50.4365 163.329 49.8391C162.594 49.2417 161.763 48.5589 160.826 48.693C160.208 48.7804 159.718 49.2051 159.149 49.4245C159.017 49.4729 158.882 49.511 158.744 49.5383C159.227 48.3318 160.114 47.3318 161.252 46.7098C162.39 46.0877 163.709 45.8825 164.981 46.1293C166.254 46.3761 167.401 47.0595 168.226 48.0623C169.051 49.0651 169.503 50.3248 169.503 51.6252C169.504 52.0187 169.463 52.4112 169.38 52.7956C169.392 52.82 169.402 52.8464 169.412 52.8708C169.631 53.4337 169.876 54.0209 170.092 54.5228L171.158 55.4901C171.158 55.4901 171.609 55.864 172.286 56.439C173.76 57.6846 176.307 59.8792 177.62 61.2203C178.792 62.403 179.157 67.0014 179.262 70.4639Z" fill="black"/>
<path d="M159.096 45.9763C159.366 45.4256 159.501 44.8099 159.821 44.2897C160.293 43.5277 161.119 43.0502 161.964 42.7576C164.175 41.9935 168.849 40.882 170.244 42.7576C170.52 43.1294 170.746 43.5561 171.127 43.8183C171.435 43.9864 171.755 44.1304 172.085 44.2491C172.976 44.6697 173.545 45.582 173.849 46.5208C174.153 47.4596 174.242 48.4553 174.456 49.4185C174.74 50.6499 175.24 51.8183 175.736 52.9806C176.321 54.3522 176.951 55.7725 178.073 56.7438C179.614 58.0667 179.96 59.9382 181.384 61.387C183.079 63.1101 183.024 65.9529 182.152 68.2084C182.007 68.4936 181.937 68.8112 181.949 69.1309C182.031 69.4575 182.205 69.7537 182.449 69.9844L183.375 71.0329C182.269 71.2722 181.116 71.1439 180.09 70.6673C179.064 70.1907 178.22 69.3918 177.686 68.3913C177.37 67.7675 177.162 67.0502 176.623 66.6072C176.141 66.211 175.491 66.1154 174.892 65.9366C172.913 65.3494 171.247 63.5348 171.19 61.4662C171.162 60.4949 171.463 59.5196 171.328 58.5564C171.246 58.0167 171.03 57.5065 170.7 57.073C170.179 56.3943 169.4 55.9331 168.979 55.1894C168.266 53.9275 168.806 52.2856 168.292 50.9222C168.134 50.5158 167.818 50.0911 167.377 50.0586C166.935 50.026 166.555 50.3959 166.133 50.5605C165.25 50.9039 164.299 50.3187 163.563 49.7212C162.828 49.1238 161.996 48.4431 161.061 48.5772C160.441 48.6646 159.953 49.0873 159.382 49.3067C158.96 49.4693 158.106 49.6156 157.735 49.2579C156.96 48.5102 158.764 46.6448 159.096 45.9763Z" fill="#591D4B"/>
<path opacity="0.1" d="M178.213 67.7675C177.899 67.1436 177.691 66.4263 177.152 65.9813C176.67 65.5851 176.018 65.4896 175.421 65.3128C173.442 64.7255 171.775 62.911 171.719 60.8424C171.688 59.869 171.992 58.8957 171.854 57.9326C171.777 57.386 171.56 56.8687 171.225 56.4309C170.706 55.7522 169.924 55.2889 169.505 54.5452C168.79 53.2833 169.333 51.6415 168.819 50.278C168.661 49.8716 168.345 49.4469 167.903 49.4144C167.462 49.3819 167.081 49.7497 166.66 49.9143C165.777 50.2597 164.823 49.6745 164.09 49.0771C163.357 48.4797 162.523 47.7989 161.585 47.931C160.978 48.0184 160.48 48.4411 159.908 48.6625C159.487 48.8251 158.633 48.9714 158.262 48.6138C157.486 47.8619 159.291 45.9966 159.617 45.3301C159.886 44.7794 160.022 44.1637 160.342 43.6435L160.397 43.5582C160.158 43.7605 159.953 43.9991 159.789 44.2653C159.465 44.7855 159.331 45.4012 159.064 45.9519C158.738 46.6204 156.934 48.4858 157.709 49.2356C158.078 49.5932 158.924 49.4388 159.356 49.2843C159.925 49.0649 160.413 48.6422 161.032 48.5528C161.968 48.4207 162.8 49.1015 163.535 49.6989C164.27 50.2963 165.224 50.8815 166.105 50.5381C166.528 50.3735 166.897 50.0016 167.349 50.0362C167.8 50.0707 168.108 50.4832 168.266 50.8998C168.78 52.2551 168.238 53.897 168.95 55.167C169.372 55.9087 170.153 56.372 170.672 57.0507C171.007 57.4885 171.224 58.0057 171.302 58.5523C171.439 59.5155 171.135 60.4888 171.166 61.4621C171.229 63.5328 172.889 65.3473 174.868 65.9326C175.465 66.1093 176.117 66.2048 176.599 66.6031C177.138 67.0461 177.344 67.7634 177.66 68.3872C178.194 69.3877 179.038 70.1866 180.064 70.6632C181.09 71.1398 182.243 71.2681 183.349 71.0288L182.913 70.533C181.002 70.5655 179.08 69.4804 178.213 67.7675Z" fill="black"/>
<path opacity="0.1" d="M165.236 59.1457C164.989 59.5155 164.284 61.4581 163.695 63.1447C163.144 62.9313 162.642 61.5577 162.642 61.5577L165.576 57.3616C165.884 57.7761 165.686 58.467 165.236 59.1457Z" fill="black"/>
<path d="M165.348 59.0319C165.103 59.4017 164.398 61.3443 163.807 63.0329C163.256 62.8195 162.756 61.4459 162.756 61.4459L165.696 57.2498C165.998 57.6623 165.799 58.3532 165.348 59.0319Z" fill="#DCE7FF"/>
<path d="M148.254 78.3278L146.624 73.1767C146.604 73.1161 146.597 73.0523 146.602 72.9888C146.607 72.9253 146.625 72.8635 146.654 72.8069C146.683 72.7502 146.723 72.6999 146.771 72.6588C146.819 72.6176 146.875 72.5864 146.936 72.5671V72.5671C146.996 72.5469 147.06 72.539 147.123 72.5439C147.187 72.5487 147.249 72.5663 147.305 72.5954C147.362 72.6246 147.412 72.6647 147.453 72.7136C147.494 72.7625 147.525 72.819 147.543 72.88L149.174 78.0352L149.012 79.1142L148.254 78.3278Z" fill="#BE8B87"/>
<path opacity="0.1" d="M146.778 72.7194C146.838 72.6999 146.902 72.6925 146.965 72.6978C147.029 72.703 147.09 72.7208 147.147 72.7501C147.203 72.7794 147.253 72.8196 147.294 72.8684C147.335 72.9171 147.366 72.9736 147.385 73.0344L149.015 78.1856L148.892 78.9984L149.011 79.1223L149.173 78.0433L147.543 72.8922C147.524 72.8312 147.494 72.7746 147.453 72.7258C147.412 72.6769 147.362 72.6367 147.305 72.6076C147.248 72.5784 147.187 72.5609 147.123 72.5561C147.06 72.5512 146.996 72.5591 146.936 72.5792V72.5792C146.834 72.6108 146.746 72.676 146.687 72.7642C146.715 72.7459 146.746 72.7309 146.778 72.7194V72.7194Z" fill="white"/>
<path d="M148.254 78.3278L149.169 78.0352L149.036 78.9211L149.007 79.1142L148.74 78.8337L148.254 78.3278Z" fill="#EFC8C4"/>
<path d="M148.74 78.8338C148.757 78.8143 148.777 78.7978 148.799 78.785C148.812 78.7769 148.827 78.7726 148.843 78.7726C148.858 78.7726 148.873 78.7769 148.886 78.785C148.899 78.8002 148.91 78.8173 148.918 78.8358C148.931 78.8572 148.948 78.8754 148.968 78.8892C148.988 78.9029 149.012 78.9118 149.036 78.915L149.008 79.1182L148.74 78.8338Z" fill="#727A9C"/>
<path d="M146.616 75.0014C146.616 75.0014 149.886 74.9831 149.115 76.3771C148.343 77.771 147.142 77.9417 147.142 77.9417L146.616 75.0014Z" fill="#FFB0B1"/>
</g>
<defs>
<linearGradient id="paint0_linear" x1="161.587" y1="147.53" x2="161.587" y2="41.3859" gradientUnits="userSpaceOnUse">
<stop stop-color="#808080" stop-opacity="0.25"/>
<stop offset="0.54" stop-color="#808080" stop-opacity="0.12"/>
<stop offset="1" stop-color="#808080" stop-opacity="0.1"/>
</linearGradient>
<clipPath id="clip0">
<rect width="200" height="160" fill="white" transform="translate(0.166748 0.034668)"/>
</clipPath>
</defs>
</svg>
