<svg width="24" height="24" viewBox="0 0 24 24" fill="none" xmlns="http://www.w3.org/2000/svg">
<path d="M12 0C5.40894 0 0 5.40894 0 12C0 17.6244 3.94665 22.7337 9.1875 24V20.0299C8.66821 20.1437 8.19032 20.1469 7.66168 19.9911C6.95252 19.7819 6.37628 19.3094 5.94855 18.5891C5.67591 18.1292 5.19269 17.6302 4.68859 17.667L4.56499 16.2661C5.65503 16.1728 6.59802 16.9304 7.15777 17.8707C7.40643 18.2889 7.69263 18.5341 8.05993 18.6425C8.41498 18.747 8.79621 18.6969 9.24042 18.54C9.35193 17.6507 9.75935 17.3178 10.0671 16.8491V16.8483C6.94153 16.3821 5.69586 14.7239 5.20148 13.415C4.54632 11.6772 4.89789 9.5061 6.0564 8.1341C6.07892 8.10736 6.11957 8.03742 6.10382 7.98852C5.57264 6.38397 6.21991 5.05663 6.24372 4.91583C6.85675 5.09711 6.95636 4.73346 8.90661 5.91834L9.24372 6.12086C9.3847 6.2049 9.34039 6.15691 9.48138 6.14629C10.2957 5.9251 11.1541 5.80298 11.9998 5.792C12.852 5.80298 13.7049 5.92511 14.5528 6.15528L14.662 6.16626C14.6525 6.16479 14.6916 6.1593 14.7574 6.12012C17.1936 4.64446 17.1061 5.12677 17.7594 4.91437C17.7829 5.05536 18.4216 6.40429 17.8962 7.98852C17.8253 8.20678 20.0084 10.2057 18.7983 13.4145C18.3039 14.7239 17.0585 16.3821 13.9329 16.8483V16.8491C14.3335 17.4597 14.8149 17.7845 14.8123 19.0443V24C20.0534 22.7337 23.9998 17.6244 23.9998 12C24 5.40894 18.591 0 12 0Z" fill="#FEFEFE"/>
</svg>
