<svg width="115" height="29" viewBox="0 0 115 29" fill="none" xmlns="http://www.w3.org/2000/svg">
<path d="M19.3125 23V6.08984H15.2109L10.4062 18.2305H10.3125L5.50781 6.08984H1.40625V23H4.55859V11.5859H4.65234L9.24609 23H11.4727L16.0664 11.5859H16.1602V23H19.3125ZM23.4492 27.6523C26.6484 27.6523 28.2305 26.5039 29.2969 23.2812L33.6211 10.4375H30.0117L27.3516 20.2578H27.2812L24.6094 10.4375H20.8594L25.2305 23.0117C25.2422 23.0586 25.1133 23.5625 25.1133 23.6094C24.8789 24.6055 24.2578 25.0039 23.0156 25.0039C22.8867 25.0039 22.2656 25.0039 22.1484 24.9805V27.6172C22.2656 27.6406 23.3203 27.6523 23.4492 27.6523ZM42.7969 23.293C43.8867 23.293 44.8828 23.1289 45.7734 22.8125L47.0977 24.5938H50.3906L48.0938 21.5234C50.0039 20.0117 50.9531 17.5742 50.9531 14.5391C50.9531 9.125 47.7773 5.79688 42.7969 5.79688C37.8164 5.79688 34.6406 9.18359 34.6406 14.5391C34.6406 19.9062 37.7461 23.293 42.7969 23.293ZM42.7969 20.4102C39.9961 20.4102 38.2148 18.1016 38.2148 14.5391C38.2148 10.9883 39.9961 8.67969 42.7969 8.67969C45.5977 8.67969 47.4023 10.9883 47.4023 14.5391C47.4023 16.3086 46.9219 17.8203 46.0312 18.8047L45.0234 17.4336H41.7305L43.8398 20.2695C43.5234 20.3633 43.1719 20.4102 42.7969 20.4102ZM64.5586 10.4375H61.1367V17.6328C61.1367 19.2969 60.1875 20.3867 58.6641 20.3867C57.1523 20.3867 56.3203 19.4961 56.3203 17.8203V10.4375H52.8984V18.5352C52.8984 21.4648 54.7031 23.2344 57.4219 23.2344C59.3203 23.2344 60.5625 22.3203 61.1836 20.7383H61.2539V23H64.5586V10.4375ZM66.8438 23H70.2656V10.4375H66.8438V23ZM68.543 8.73828C69.5391 8.73828 70.3242 7.94141 70.3242 6.98047C70.3242 6.00781 69.5391 5.22266 68.543 5.22266C67.5469 5.22266 66.7617 6.00781 66.7617 6.98047C66.7617 7.94141 67.5469 8.73828 68.543 8.73828ZM72.3164 23H82.6875V20.375H76.6641V20.3164L82.5469 12.6055V10.4375H72.4102V13.0508H78.5742V13.1211L72.3164 21.0547V23Z" fill="#5375E2"/>
<g clip-path="url(#clip0)">
<path d="M99.6078 21.5531C99.3787 21.7835 99.0661 21.9121 98.7414 21.9121C98.4167 21.9121 98.1042 21.7835 97.8751 21.5531L90.9562 14.6332C90.2382 13.9151 90.2382 12.7508 90.9562 12.0341L91.8226 11.1676C92.5408 10.4495 93.7038 10.4495 94.4218 11.1676L98.7414 15.4874L110.414 3.81501C111.132 3.09698 112.296 3.09698 113.013 3.81501L113.879 4.68157C114.597 5.39959 114.597 6.56369 113.879 7.28059L99.6078 21.5531Z" fill="#5375E2"/>
</g>
<defs>
<clipPath id="clip0">
<rect width="24" height="24" fill="white" transform="translate(90.4177 0.587463)"/>
</clipPath>
</defs>
</svg>
