<svg width="24" height="25" viewBox="0 0 24 25" fill="none" xmlns="http://www.w3.org/2000/svg">
<g clip-path="url(#clip0)">
<path d="M20.4459 1.90671C20.3484 1.80912 20.2157 1.75488 20.0777 1.75635C19.9401 1.75732 19.8084 1.81107 19.7095 1.90671L12.2824 9.33354L12.2618 9.35449L12.2514 9.36488C12.2411 9.38047 12.2255 9.39606 12.2152 9.41149C12.2152 9.41668 12.21 9.41668 12.21 9.42188C12.1996 9.43731 12.1942 9.44786 12.184 9.46329C12.1786 9.46849 12.1786 9.47384 12.1736 9.47888C12.1684 9.49447 12.1634 9.50486 12.158 9.52045C12.158 9.52564 12.1528 9.52564 12.1528 9.53068L10.8302 13.5192C10.7668 13.7048 10.8151 13.9105 10.9549 14.0482C11.0528 14.1448 11.1851 14.1989 11.3228 14.1986C11.3792 14.1975 11.4352 14.1888 11.489 14.1726L15.4671 12.845C15.4721 12.845 15.4721 12.845 15.4773 12.8398C15.4937 12.835 15.5096 12.8281 15.5239 12.8191C15.528 12.8185 15.5317 12.8167 15.5345 12.8138C15.5499 12.8035 15.5707 12.7932 15.5863 12.7826C15.6017 12.7722 15.6173 12.7566 15.6329 12.7464C15.6382 12.7414 15.6433 12.7414 15.6433 12.736C15.6485 12.7308 15.6588 12.7256 15.6642 12.7154L23.0961 5.28318C23.1933 5.18607 23.2479 5.05454 23.2479 4.91749C23.2479 4.78028 23.1933 4.64858 23.0961 4.5518L20.4459 1.90671ZM12.8738 10.6614L14.3416 12.1292L12.1424 12.8604L12.8738 10.6614ZM15.3011 11.6209L13.382 9.70199L20.0777 3.00622L21.9966 4.92512L15.3011 11.6209Z" fill="black"/>
<path d="M19.2221 11.4498C18.936 11.4506 18.7042 11.6823 18.7034 11.9684V21.662C18.701 22.5202 18.006 23.2152 17.1474 23.218H3.34133C2.48313 23.2152 1.7878 22.5202 1.78536 21.662V7.85553C1.7878 6.99732 2.48313 6.30215 3.34133 6.29955H13.0346C13.3212 6.29955 13.5532 6.06734 13.5532 5.7809C13.5532 5.49445 13.3212 5.26224 13.0346 5.26224H3.34133C1.90926 5.26289 0.748696 6.42362 0.748047 7.85553V21.662C0.748696 23.0939 1.90926 24.2546 3.34133 24.2551H17.1474C18.5795 24.2546 19.7402 23.0939 19.7407 21.662V11.9684C19.7399 11.6823 19.5082 11.4506 19.2221 11.4498Z" fill="black"/>
</g>
<defs>
<clipPath id="clip0">
<rect width="24" height="24" fill="white" transform="translate(0 0.997131)"/>
</clipPath>
</defs>
</svg>
