<svg width="24" height="25" viewBox="0 0 24 25" fill="none" xmlns="http://www.w3.org/2000/svg">
<path d="M12 24.9971C8.79469 24.9971 5.78119 23.7489 3.51469 21.4824C1.24819 19.2159 0 16.2024 0 12.9971C0 9.79182 1.24823 6.77837 3.51469 4.51182C5.78114 2.24527 8.79469 0.997131 12 0.997131C15.2053 0.997131 18.2188 2.24532 20.4853 4.51182C22.7518 6.77832 24 9.79182 24 12.9971C24 16.2024 22.7518 19.2159 20.4853 21.4824C18.2189 23.749 15.2053 24.9971 12 24.9971ZM12 2.49713C6.21028 2.49713 1.5 7.20741 1.5 12.9971C1.5 18.7868 6.21028 23.4971 12 23.4971C17.7897 23.4971 22.5 18.7868 22.5 12.9971C22.5 7.20741 17.7897 2.49713 12 2.49713Z" fill="black"/>
<path d="M12 12.2471C10.9661 12.2471 10.125 11.406 10.125 10.3721C10.125 9.33826 10.9661 8.49713 12 8.49713C13.0339 8.49713 13.875 9.33826 13.875 10.3721C13.875 10.7863 14.2108 11.1221 14.625 11.1221C15.0392 11.1221 15.375 10.7863 15.375 10.3721C15.375 8.76896 14.251 7.42426 12.75 7.08216V6.24713C12.75 5.83294 12.4142 5.49713 12 5.49713C11.5858 5.49713 11.25 5.83294 11.25 6.24713V7.08216C9.74897 7.42426 8.625 8.76896 8.625 10.3721C8.625 12.2331 10.139 13.7471 12 13.7471C13.0339 13.7471 13.875 14.5883 13.875 15.6221C13.875 16.656 13.0339 17.4971 12 17.4971C10.9661 17.4971 10.125 16.656 10.125 15.6221C10.125 15.2079 9.78923 14.8721 9.375 14.8721C8.96077 14.8721 8.625 15.2079 8.625 15.6221C8.625 17.2253 9.74897 18.57 11.25 18.9121V19.7471C11.25 20.1613 11.5858 20.4971 12 20.4971C12.4142 20.4971 12.75 20.1613 12.75 19.7471V18.9121C14.251 18.57 15.375 17.2253 15.375 15.6221C15.375 13.7611 13.861 12.2471 12 12.2471Z" fill="black"/>
</svg>
