<svg width="24" height="25" viewBox="0 0 24 25" fill="none" xmlns="http://www.w3.org/2000/svg">
<g clip-path="url(#clip0)">
<path d="M12 19.9112C12.6472 19.9112 13.1719 19.3865 13.1719 18.7393C13.1719 18.0921 12.6472 17.5674 12 17.5674C11.3528 17.5674 10.8281 18.0921 10.8281 18.7393C10.8281 19.3865 11.3528 19.9112 12 19.9112Z" fill="black"/>
<path d="M12 0.997131C5.36794 0.997131 0 6.36418 0 12.9971C0 19.6292 5.36705 24.9971 12 24.9971C18.6321 24.9971 24 19.6301 24 12.9971C24 6.36507 18.633 0.997131 12 0.997131ZM12 23.1221C6.4042 23.1221 1.875 18.5937 1.875 12.9971C1.875 7.40133 6.40345 2.87213 12 2.87213C17.5958 2.87213 22.125 7.40058 22.125 12.9971C22.125 18.5929 17.5965 23.1221 12 23.1221Z" fill="black"/>
<path d="M12 7.02057C9.93225 7.02057 8.25 8.70282 8.25 10.7706C8.25 11.2884 8.66972 11.7081 9.1875 11.7081C9.70528 11.7081 10.125 11.2884 10.125 10.7706C10.125 9.73669 10.9661 8.89557 12 8.89557C13.0339 8.89557 13.875 9.73669 13.875 10.7706C13.875 11.8044 13.0339 12.6456 12 12.6456C11.4822 12.6456 11.0625 13.0653 11.0625 13.5831V15.9268C11.0625 16.4446 11.4822 16.8643 12 16.8643C12.5178 16.8643 12.9375 16.4446 12.9375 15.9268V14.4019C14.5531 13.9846 15.75 12.5147 15.75 10.7706C15.75 8.70282 14.0677 7.02057 12 7.02057Z" fill="black"/>
</g>
<defs>
<clipPath id="clip0">
<rect width="24" height="24" fill="white" transform="translate(0 0.997131)"/>
</clipPath>
</defs>
</svg>
