<svg width="24" height="24" viewBox="0 0 24 24" fill="none" xmlns="http://www.w3.org/2000/svg">
<path d="M13.8967 15.7312C13.3099 15.3218 12.6827 14.9882 12.0268 14.7333C12.8993 13.9403 13.4781 12.8294 13.5788 11.5857C14.902 10.2965 16.6363 9.58966 18.4956 9.58966C19.9471 9.58966 21.3407 10.0267 22.5261 10.8535C22.9509 11.1497 23.535 11.0457 23.8313 10.6209C24.1274 10.1963 24.0234 9.612 23.5987 9.31592C23.0119 8.9065 22.3846 8.57306 21.7287 8.318C22.6914 7.44293 23.2968 6.18115 23.2968 4.78076C23.2968 2.14459 21.1523 6.10352e-05 18.5161 6.10352e-05C15.8801 6.10352e-05 13.7356 2.14459 13.7356 4.78076C13.7356 6.17548 14.336 7.43268 15.2922 8.30738C15.1612 8.35773 15.0311 8.41101 14.9021 8.46778C14.3155 8.72596 13.764 9.04346 13.2511 9.41626C12.5437 7.659 10.8216 6.41535 8.81426 6.41535C6.17828 6.41535 4.03356 8.55988 4.03356 11.1959C4.03356 12.5867 4.63067 13.8405 5.58172 14.7148C3.03893 15.6675 0.977168 17.7137 0.137814 20.3233C-0.140507 21.1887 0.00689327 22.1064 0.542293 22.8412C1.07769 23.5758 1.90606 23.9971 2.815 23.9971H10.9703C11.488 23.9971 11.9076 23.5775 11.9076 23.0596C11.9076 22.542 11.488 22.1223 10.9703 22.1223H2.815C2.51196 22.1223 2.23583 21.9819 2.05731 21.7369C1.87878 21.4919 1.82971 21.1859 1.92236 20.8973C2.84887 18.0167 5.67455 16.0049 8.79375 16.0049C10.245 16.0049 11.6388 16.442 12.8243 17.2687C13.2489 17.565 13.8332 17.4608 14.1294 17.0362C14.4255 16.6116 14.3215 16.0273 13.8967 15.7312ZM18.5161 1.87488C20.1185 1.87488 21.422 3.17841 21.422 4.78076C21.422 6.38294 20.1185 7.68665 18.5161 7.68665C16.9139 7.68665 15.6102 6.38294 15.6102 4.78076C15.6102 3.17841 16.9139 1.87488 18.5161 1.87488ZM8.81426 8.28998C10.4166 8.28998 11.7201 9.59369 11.7201 11.1959C11.7201 12.7982 10.4166 14.1018 8.81426 14.1018C7.21191 14.1018 5.90838 12.7982 5.90838 11.1959C5.90838 9.59369 7.21191 8.28998 8.81426 8.28998ZM23.9999 19.5446C23.9999 20.0622 23.5802 20.4819 23.0624 20.4819H20.4847V23.0596C20.4847 23.5775 20.065 23.9971 19.5473 23.9971C19.0295 23.9971 18.6098 23.5775 18.6098 23.0596V20.4819H16.0321C15.5145 20.4819 15.0948 20.0622 15.0948 19.5446C15.0948 19.0267 15.5145 18.6071 16.0321 18.6071H18.6098V16.0293C18.6098 15.5117 19.0295 15.092 19.5473 15.092C20.065 15.092 20.4847 15.5117 20.4847 16.0293V18.6071H23.0624C23.5802 18.6071 23.9999 19.0267 23.9999 19.5446Z" fill="black"/>
</svg>
