<svg width="20" height="20" viewBox="0 0 20 20" fill="none" xmlns="http://www.w3.org/2000/svg">
<g clip-path="url(#clip0)">
<path d="M19.9097 7.602C19.6695 6.86546 19.0136 6.38955 18.2388 6.38955H13.2427L11.6694 1.61169C11.4276 0.87722 10.7731 0.403809 10.0005 0.403809C9.99809 0.403809 9.99555 0.403809 9.99309 0.403848C9.21741 0.406894 8.56316 0.886165 8.32636 1.62485L6.79891 6.38955H1.7612C0.984513 6.38955 0.328118 6.86707 0.08901 7.60603C-0.150137 8.34499 0.102094 9.11652 0.731618 9.57154L4.80766 12.5178L3.23874 17.2824C2.99592 18.0198 3.24393 18.7924 3.87056 19.2507C4.18529 19.4809 4.54653 19.5961 4.908 19.5961C5.26619 19.596 5.62458 19.4829 5.93774 19.2565L10.0209 16.3053L14.0555 19.2516C14.6814 19.7087 15.492 19.7109 16.1205 19.2573C16.749 18.8038 17.0022 18.0337 16.7657 17.2956L15.2339 12.5178L19.2753 9.5665C19.901 9.10961 20.1501 8.3385 19.9097 7.602ZM18.5843 8.62022L13.86 12.0702L15.6498 17.6533C15.7703 18.0291 15.5157 18.2488 15.4348 18.3072C15.3539 18.3656 15.0651 18.538 14.7464 18.3052L10.0243 14.8569L5.25131 18.3069C4.931 18.5384 4.64296 18.364 4.56227 18.305C4.48161 18.246 4.22801 18.0243 4.35167 17.6488L6.18865 12.0702L1.41801 8.62194C1.0975 8.39026 1.17304 8.06186 1.20382 7.96676C1.2346 7.87165 1.36575 7.56127 1.7612 7.56127H7.65376L9.44219 1.98254C9.56275 1.60646 9.8979 1.57595 9.99777 1.57552H9.9998C10.1021 1.57552 10.4338 1.60556 10.5566 1.97816L12.395 7.56127H18.2389C18.6334 7.56127 18.7649 7.8706 18.7959 7.96543C18.8268 8.06026 18.9029 8.38764 18.5843 8.62022Z" fill="black"/>
</g>
<defs>
<clipPath id="clip0">
<rect width="20" height="20" fill="white"/>
</clipPath>
</defs>
</svg>
