<svg width="12" height="12" viewBox="0 0 12 12" fill="none" xmlns="http://www.w3.org/2000/svg">
<path d="M7.47834 10.7958L11.8087 6.46549C11.9322 6.34198 12 6.17719 12 5.99797C12 5.82227 11.9322 5.65758 11.8087 5.53407L7.47834 1.20363C7.22244 0.947829 6.80595 0.947829 6.55024 1.20363L6.15688 1.5968C6.03346 1.72032 5.96556 1.8851 5.96556 2.0609C5.96556 2.23661 6.03346 2.40705 6.15688 2.53046L8.68332 5.06237L0.656878 5.06237C0.295122 5.06237 0 5.34568 0 5.70744L0 6.26354C0 6.62529 0.295122 6.93729 0.656878 6.93729L8.71181 6.93729L6.15688 9.48354C6.03346 9.60695 5.96556 9.76734 5.96556 9.94315C5.96556 10.119 6.03346 10.2813 6.15688 10.4049L6.55024 10.7969C6.80605 11.0528 7.22244 11.0518 7.47834 10.7958Z" fill="#FEFEFE" fill-opacity="0.45"/>
</svg>
