<svg width="16" height="16" viewBox="0 0 16 16" fill="none" xmlns="http://www.w3.org/2000/svg">
<path d="M8 0C3.60596 0 0 3.60596 0 8C0 11.7496 2.6311 15.1558 6.125 16V13.3533C5.77881 13.4291 5.46021 13.4313 5.10779 13.3274C4.63501 13.1879 4.25085 12.8729 3.9657 12.3927C3.78394 12.0861 3.46179 11.7535 3.12573 11.778L3.04333 10.8441C3.77002 10.7819 4.39868 11.2869 4.77185 11.9138C4.93762 12.1926 5.12842 12.3561 5.37329 12.4283C5.60999 12.498 5.86414 12.4646 6.16028 12.36C6.23462 11.7671 6.50623 11.5452 6.71143 11.2327V11.2322C4.62769 10.9214 3.79724 9.81592 3.46765 8.94336C3.03088 7.78479 3.26526 6.3374 4.0376 5.42273C4.05261 5.40491 4.07971 5.35828 4.06921 5.32568C3.71509 4.25598 4.14661 3.37109 4.16248 3.27722C4.57117 3.39807 4.63757 3.15564 5.93774 3.94556L6.16248 4.08057C6.25647 4.1366 6.22693 4.10461 6.32092 4.09753C6.86377 3.95007 7.43604 3.86865 7.99988 3.86133C8.56799 3.86865 9.1366 3.95007 9.7019 4.10352L9.77466 4.11084C9.76831 4.10986 9.79443 4.1062 9.83826 4.08008C11.4624 3.09631 11.4041 3.41785 11.8396 3.27625C11.8553 3.37024 12.2811 4.26953 11.9308 5.32568C11.8835 5.47119 13.3389 6.80383 12.5322 8.94299C12.2026 9.81592 11.3723 10.9214 9.28857 11.2322V11.2327C9.55566 11.6398 9.87659 11.8563 9.87488 12.6962V16C13.3689 15.1558 15.9999 11.7496 15.9999 8C16 3.60596 12.394 0 8 0V0Z" fill="black"/>
</svg>
