<svg width="16" height="16" viewBox="0 0 16 16" fill="none" xmlns="http://www.w3.org/2000/svg">
<path d="M8.04052 0.000125C8.03995 0.000125 8.03942 0.000125 8.03886 9.37498e-05C8.0363 9.37498e-05 8.03377 0 8.03123 0C8.03086 0 8.03048 0 8.03011 0C8.02911 0 8.02808 3.12499e-05 8.02708 3.12499e-05C3.61831 0.00228125 0 3.57037 0 7.96873C0 9.04423 0.214218 10.0916 0.636749 11.0818C1.45478 12.9989 2.99696 14.5434 4.91815 15.3632C5.90821 15.7857 6.95546 15.9999 8.0308 15.9999C8.03108 15.9999 8.03136 16 8.03164 16C8.03236 16 8.03311 15.9999 8.03383 15.9999C12.4573 15.9985 16 12.3539 16 7.96873C16 3.57106 12.445 0.00509374 8.04052 0.000125ZM6.47864 1.10759C5.67924 1.86547 5.02608 2.75309 4.53424 3.74999H2.35984C3.35706 2.43625 4.8074 1.4789 6.47864 1.10759ZM1.75893 4.68124H4.13365C3.80574 5.57958 3.61187 6.53708 3.56184 7.49999H0.953654C1.02106 6.48974 1.30465 5.53102 1.75893 4.68124ZM1.77659 11.3125C1.31128 10.4456 1.02119 9.47145 0.953404 8.43748H3.55865C3.6034 9.42173 3.79871 10.3947 4.13371 11.3125H1.77659ZM2.37903 12.25H4.53424C5.02515 13.245 5.6774 14.1323 6.47655 14.8904C4.81677 14.5178 3.37521 13.5619 2.37903 12.25ZM4.49752 8.43748H7.56245V11.3125H5.14455C4.77024 10.4107 4.5478 9.44001 4.49752 8.43748ZM7.56252 14.5973C6.76552 13.9337 6.10471 13.1368 5.60218 12.25H7.56249V14.5973H7.56252ZM7.56252 7.49999H4.50068C4.5569 6.51958 4.77805 5.57055 5.14462 4.68749H7.56252V7.49999V7.49999ZM7.56252 3.74999H5.60224C6.10474 2.86312 6.76555 2.06625 7.56252 1.40262V3.74999V3.74999ZM14.2483 4.68749C14.6986 5.53727 14.9796 6.48974 15.0465 7.49999H12.5006C12.4506 6.53708 12.2567 5.58583 11.9288 4.68749H14.2483ZM13.6527 3.74999H11.5283C11.0377 2.75571 10.3862 1.86909 9.58801 1.11147C11.237 1.48565 12.6678 2.44093 13.6527 3.74999ZM8.50002 1.40281C9.29698 2.06643 9.95804 2.86312 10.4605 3.74999H8.50002V1.40281ZM8.49998 4.68749H10.9185C11.285 5.57049 11.5056 6.51964 11.5619 7.49999H8.49998V4.68749ZM11.5652 8.43123C11.515 9.4337 11.2928 10.4107 10.9185 11.3125H8.49998V8.43123H11.5652ZM8.50002 14.5972V12.2437H10.4605C9.95804 13.1306 9.29698 13.9335 8.50002 14.5972ZM9.59014 14.8865C10.3867 14.1299 11.0378 13.2378 11.5282 12.2437H13.6336C12.6499 13.5509 11.2278 14.511 9.59014 14.8865ZM11.9288 11.3125C12.2638 10.3947 12.4591 9.41548 12.5039 8.43123H15.0468C14.9796 9.4652 14.692 10.4456 14.2308 11.3125H11.9288Z" fill="#171717" fill-opacity="0.7"/>
</svg>
