<svg width="16" height="16" viewBox="0 0 16 16" fill="none" xmlns="http://www.w3.org/2000/svg">
<g clip-path="url(#clip0)">
<path d="M15.3959 6.60908L8.86968 6.60876C8.58149 6.60876 8.3479 6.84233 8.3479 7.13051V9.21536C8.3479 9.50348 8.58149 9.73711 8.86965 9.73711H12.5448C12.1424 10.7815 11.3913 11.6562 10.433 12.2119L12.0001 14.9247C14.5139 13.4709 16.0001 10.92 16.0001 8.06439C16.0001 7.6578 15.9701 7.36714 15.9101 7.03986C15.8646 6.7912 15.6487 6.60908 15.3959 6.60908Z" fill="#167EE6"/>
<path d="M8.0001 12.8696C6.20153 12.8696 4.63141 11.8869 3.78813 10.4327L1.07544 11.9963C2.45591 14.3889 5.04197 16 8.0001 16C9.45125 16 10.8205 15.6093 12.0001 14.9284V14.9247L10.433 12.2119C9.71619 12.6276 8.88669 12.8696 8.0001 12.8696Z" fill="#12B347"/>
<path d="M12 14.9283V14.9246L10.4329 12.2118C9.71609 12.6275 8.88666 12.8695 8 12.8695V15.9999C9.45116 15.9999 10.8205 15.6092 12 14.9283Z" fill="#0F993E"/>
<path d="M3.13044 7.99994C3.13044 7.11341 3.37238 6.28401 3.78803 5.56722L1.07534 4.00366C0.390687 5.17951 0 6.54507 0 7.99994C0 9.45482 0.390687 10.8204 1.07534 11.9962L3.78803 10.4327C3.37238 9.71588 3.13044 8.88647 3.13044 7.99994Z" fill="#FFD500"/>
<path d="M8.0001 3.13044C9.17294 3.13044 10.2503 3.54719 11.0917 4.24041C11.2993 4.41141 11.601 4.39906 11.7912 4.20891L13.2684 2.73172C13.4841 2.51597 13.4688 2.16281 13.2383 1.96287C11.8284 0.739781 9.99406 0 8.0001 0C5.04197 0 2.45591 1.61116 1.07544 4.00372L3.78813 5.56728C4.63141 4.11312 6.20153 3.13044 8.0001 3.13044Z" fill="#FF4B26"/>
<path d="M11.0916 4.24041C11.2992 4.41141 11.601 4.39906 11.7911 4.20891L13.2683 2.73172C13.484 2.51597 13.4686 2.16281 13.2382 1.96288C11.8283 0.73975 9.99397 0 8 0V3.13044C9.17281 3.13044 10.2502 3.54719 11.0916 4.24041Z" fill="#D93F21"/>
</g>
<defs>
<clipPath id="clip0">
<rect width="16" height="16" fill="white"/>
</clipPath>
</defs>
</svg>
