<svg width="24" height="24" viewBox="0 0 24 24" fill="none" xmlns="http://www.w3.org/2000/svg">
<path d="M11.8295 11.5609C13.4177 11.5609 14.7928 10.9913 15.9167 9.86737C17.0403 8.74365 17.6101 7.36871 17.6101 5.78027C17.6101 4.19238 17.0405 2.81726 15.9166 1.69318C14.7927 0.569641 13.4175 0 11.8295 0C10.241 0 8.86609 0.569641 7.74237 1.69336C6.61865 2.81708 6.04883 4.1922 6.04883 5.78027C6.04883 7.36871 6.61865 8.74384 7.74237 9.86755C8.86646 10.9911 10.2416 11.5609 11.8295 11.5609ZM8.737 2.68781C9.59924 1.82556 10.6107 1.40643 11.8295 1.40643C13.048 1.40643 14.0597 1.82556 14.9221 2.68781C15.7844 3.55023 16.2037 4.56189 16.2037 5.78027C16.2037 6.99902 15.7844 8.0105 14.9221 8.87292C14.0597 9.73535 13.048 10.1545 11.8295 10.1545C10.6111 10.1545 9.59961 9.73517 8.737 8.87292C7.87457 8.01068 7.45526 6.99902 7.45526 5.78027C7.45526 4.56189 7.87457 3.55023 8.737 2.68781Z" fill="black"/>
<path d="M21.9435 18.4548C21.9111 17.9872 21.8456 17.4771 21.7491 16.9384C21.6517 16.3956 21.5262 15.8826 21.3761 15.4136C21.2208 14.929 21.0101 14.4503 20.7491 13.9916C20.4787 13.5156 20.1608 13.101 19.8041 12.7599C19.4312 12.403 18.9745 12.1161 18.4464 11.9068C17.9202 11.6986 17.337 11.5931 16.7131 11.5931C16.4681 11.5931 16.2312 11.6937 15.7736 11.9916C15.492 12.1752 15.1626 12.3876 14.7949 12.6226C14.4805 12.8229 14.0546 13.0106 13.5286 13.1805C13.0153 13.3466 12.4942 13.4308 11.9797 13.4308C11.4655 13.4308 10.9444 13.3466 10.4308 13.1805C9.90527 13.0107 9.47919 12.8231 9.16534 12.6227C8.80115 12.39 8.47156 12.1776 8.18573 11.9914C7.72852 11.6935 7.49158 11.593 7.24658 11.593C6.62256 11.593 6.03955 11.6986 5.51349 11.907C4.98578 12.1159 4.52893 12.4028 4.15558 12.7601C3.79889 13.1014 3.48102 13.5157 3.21075 13.9916C2.9502 14.4503 2.73926 14.9288 2.58398 15.4138C2.43402 15.8828 2.30859 16.3956 2.21118 16.9384C2.1145 17.4763 2.04913 17.9866 2.01672 18.4554C1.98486 18.9137 1.96875 19.3907 1.96875 19.8726C1.96875 21.1254 2.367 22.1396 3.15234 22.8876C3.92798 23.6257 4.9541 24 6.20233 24H17.7585C19.0063 24 20.0325 23.6257 20.8083 22.8876C21.5938 22.1402 21.9921 21.1256 21.9921 19.8724C21.9919 19.3889 21.9756 18.9119 21.9435 18.4548ZM19.8386 21.8687C19.326 22.3564 18.6456 22.5936 17.7583 22.5936H6.20233C5.31482 22.5936 4.6344 22.3564 4.12207 21.8688C3.61945 21.3904 3.37518 20.7372 3.37518 19.8726C3.37518 19.4229 3.39001 18.9789 3.41968 18.5526C3.44861 18.1344 3.50775 17.675 3.59546 17.1868C3.68207 16.7047 3.7923 16.2523 3.9234 15.8427C4.04919 15.4499 4.22076 15.061 4.43353 14.6863C4.6366 14.3293 4.87024 14.0229 5.12805 13.7761C5.3692 13.5452 5.67316 13.3563 6.03131 13.2145C6.36255 13.0834 6.7348 13.0117 7.13892 13.0009C7.18817 13.027 7.27588 13.077 7.41797 13.1697C7.70709 13.3581 8.04034 13.5731 8.40875 13.8083C8.82404 14.0731 9.35907 14.3123 9.99829 14.5186C10.6518 14.7299 11.3183 14.8372 11.9799 14.8372C12.6414 14.8372 13.3081 14.7299 13.9612 14.5188C14.601 14.3121 15.1359 14.0731 15.5517 13.808C15.9287 13.567 16.2526 13.3583 16.5417 13.1697C16.6838 13.0772 16.7715 13.027 16.8208 13.0009C17.2251 13.0117 17.5974 13.0834 17.9288 13.2145C18.2867 13.3563 18.5907 13.5454 18.8318 13.7761C19.0897 14.0228 19.3233 14.3291 19.5264 14.6865C19.7393 15.061 19.9111 15.4501 20.0367 15.8425C20.168 16.2526 20.2784 16.7049 20.3648 17.1866C20.4523 17.6757 20.5117 18.1353 20.5406 18.5528V18.5532C20.5704 18.9778 20.5854 19.4216 20.5856 19.8726C20.5854 20.7374 20.3412 21.3904 19.8386 21.8687Z" fill="black"/>
</svg>
