<svg width="14" height="15" viewBox="0 0 14 15" fill="none" xmlns="http://www.w3.org/2000/svg">
<g clip-path="url(#clip0)">
<path d="M13.4166 14.5C13.2673 14.5 13.1179 14.4428 13.0042 14.3291L8.93254 10.2574C8.70445 10.0293 8.70445 9.66068 8.93254 9.4326C9.16062 9.20451 9.52929 9.20451 9.75737 9.4326L13.829 13.5043C14.0571 13.7323 14.0571 14.101 13.829 14.3291C13.7153 14.4428 13.5659 14.5 13.4166 14.5Z" fill="#FEFEFE"/>
<path d="M5.6875 11.875C2.5515 11.875 0 9.3235 0 6.1875C0 3.0515 2.5515 0.5 5.6875 0.5C8.8235 0.5 11.375 3.0515 11.375 6.1875C11.375 9.3235 8.8235 11.875 5.6875 11.875ZM5.6875 1.66667C3.19492 1.66667 1.16667 3.69492 1.16667 6.1875C1.16667 8.68008 3.19492 10.7083 5.6875 10.7083C8.18008 10.7083 10.2083 8.68008 10.2083 6.1875C10.2083 3.69492 8.18008 1.66667 5.6875 1.66667Z" fill="#FEFEFE"/>
</g>
<defs>
<clipPath id="clip0">
<rect width="14" height="14" fill="white" transform="translate(0 0.5)"/>
</clipPath>
</defs>
</svg>
