<svg width="24" height="25" viewBox="0 0 24 25" fill="none" xmlns="http://www.w3.org/2000/svg">
<g clip-path="url(#clip0)">
<path d="M19.515 6.63333C19.3208 6.63333 19.1634 6.79074 19.1634 6.98489V22.7668C19.1634 22.7802 19.1526 22.791 19.1392 22.791H6.73926C6.5451 22.791 6.3877 22.9484 6.3877 23.1426C6.3877 23.3368 6.5451 23.4942 6.73926 23.4942H19.1392C19.5403 23.4942 19.8665 23.1679 19.8665 22.7668V6.98489C19.8665 6.79074 19.7091 6.63333 19.515 6.63333Z" fill="black"/>
<path d="M20.642 2.50013H17.4058L16.2259 1.32024C16.0175 1.11188 15.7406 0.997131 15.4459 0.997131H3.3572C2.95613 0.997131 2.62988 1.32338 2.62988 1.72445V22.7668C2.62988 23.1679 2.95613 23.4941 3.3572 23.4941H4.13289V24.2698C4.13289 24.6709 4.45914 24.9971 4.8602 24.9971H20.642C21.0431 24.9971 21.3693 24.6709 21.3693 24.2698V3.2275C21.3693 2.82643 21.0431 2.50013 20.642 2.50013ZM15.733 1.82166L19.0417 5.13044H15.7572C15.7438 5.13044 15.733 5.11961 15.733 5.10625V1.82166ZM20.6662 24.2699C20.6662 24.2832 20.6554 24.2941 20.642 24.2941H4.8602C4.84684 24.2941 4.83601 24.2832 4.83601 24.2699V23.4942H5.23586C5.43001 23.4942 5.58742 23.3368 5.58742 23.1426C5.58742 22.9485 5.43001 22.791 5.23586 22.791H3.3572C3.34384 22.791 3.33301 22.7802 3.33301 22.7669V1.72445C3.33301 1.71109 3.34384 1.70026 3.3572 1.70026H15.0298V5.10625C15.0298 5.50731 15.3561 5.83356 15.7572 5.83356H19.5148C19.7089 5.83356 19.8663 5.67616 19.8663 5.482V5.41755C19.8663 5.12294 19.7516 4.8459 19.5432 4.63754L18.1089 3.20326H20.642C20.6554 3.20326 20.6662 3.21409 20.6662 3.22745V24.2699Z" fill="black"/>
<path d="M9.61825 5.01328C9.48095 4.87598 9.25834 4.87598 9.12109 5.01328L7.13223 7.00214C7.12276 7.01157 7.10743 7.01157 7.09801 7.00214L6.30516 6.2093H6.91548C7.10964 6.2093 7.26704 6.05189 7.26704 5.85774C7.26704 5.66358 7.10964 5.50617 6.91548 5.50617H5.98782C5.87541 5.50617 5.76929 5.53256 5.67413 5.57831L5.4849 5.38908C5.3476 5.25178 5.12499 5.25178 4.98774 5.38908C4.85044 5.52638 4.85044 5.74899 4.98774 5.88624L5.26411 6.16261C5.26186 6.18591 5.26055 6.20953 5.26055 6.23344V8.48799C5.26055 8.88905 5.5868 9.2153 5.98787 9.2153H8.24242C8.64348 9.2153 8.96973 8.88905 8.96973 8.48799V6.15896L9.61825 5.51044C9.75555 5.37314 9.75555 5.15053 9.61825 5.01328ZM8.26661 8.48804C8.26661 8.5014 8.25578 8.51222 8.24242 8.51222H5.98787C5.97451 8.51222 5.96368 8.5014 5.96368 8.48804V6.86208L6.60085 7.49925C6.74265 7.64105 6.92888 7.71197 7.11517 7.71197C7.3014 7.71197 7.48764 7.64105 7.62943 7.49925L8.26661 6.86208V8.48804Z" fill="black"/>
<path d="M8.24261 10.3911H5.98806C5.58699 10.3911 5.26074 10.7173 5.26074 11.1184V13.3729C5.26074 13.774 5.58699 14.1002 5.98806 14.1002H8.24261C8.64368 14.1002 8.96993 13.774 8.96993 13.3729V11.1184C8.96993 10.7173 8.64368 10.3911 8.24261 10.3911ZM8.2668 13.3729C8.2668 13.3863 8.25597 13.3971 8.24261 13.3971H5.98806C5.9747 13.3971 5.96387 13.3863 5.96387 13.3729V11.1184C5.96387 11.105 5.9747 11.0942 5.98806 11.0942H8.24261C8.25597 11.0942 8.2668 11.105 8.2668 11.1184V13.3729Z" fill="black"/>
<path d="M8.24261 15.2758H5.98806C5.58699 15.2758 5.26074 15.6021 5.26074 16.0032V18.2577C5.26074 18.6588 5.58699 18.985 5.98806 18.985H8.24261C8.64368 18.985 8.96993 18.6587 8.96993 18.2577V16.0032C8.96993 15.6021 8.64368 15.2758 8.24261 15.2758ZM8.2668 18.2577C8.2668 18.2711 8.25597 18.2819 8.24261 18.2819H5.98806C5.9747 18.2819 5.96387 18.271 5.96387 18.2577V16.0032C5.96387 15.9898 5.9747 15.979 5.98806 15.979H8.24261C8.25597 15.979 8.2668 15.9898 8.2668 16.0032V18.2577Z" fill="black"/>
<path d="M13.8789 6.25778H10.4971C10.3029 6.25778 10.1455 6.41519 10.1455 6.60935C10.1455 6.8035 10.3029 6.96091 10.4971 6.96091H13.8789C14.073 6.96091 14.2304 6.8035 14.2304 6.60935C14.2304 6.41519 14.073 6.25778 13.8789 6.25778Z" fill="black"/>
<path d="M16.8849 7.76077H10.4971C10.3029 7.76077 10.1455 7.91818 10.1455 8.11234C10.1455 8.30649 10.3029 8.4639 10.4971 8.4639H16.8849C17.0791 8.4639 17.2365 8.30649 17.2365 8.11234C17.2365 7.91818 17.0791 7.76077 16.8849 7.76077Z" fill="black"/>
<path d="M13.8789 11.1426H10.4971C10.3029 11.1426 10.1455 11.3 10.1455 11.4941C10.1455 11.6883 10.3029 11.8457 10.4971 11.8457H13.8789C14.073 11.8457 14.2304 11.6883 14.2304 11.4941C14.2304 11.3 14.073 11.1426 13.8789 11.1426Z" fill="black"/>
<path d="M16.7394 12.9972H10.3516C10.1574 12.9972 10 13.1546 10 13.3487C10 13.5429 10.1574 13.7003 10.3516 13.7003H16.7394C16.9336 13.7003 17.091 13.5429 17.091 13.3487C17.091 13.1546 16.9336 12.9972 16.7394 12.9972Z" fill="black"/>
<path d="M13.8789 16.0274H10.4971C10.3029 16.0274 10.1455 16.1848 10.1455 16.379C10.1455 16.5731 10.3029 16.7305 10.4971 16.7305H13.8789C14.073 16.7305 14.2304 16.5731 14.2304 16.379C14.2304 16.1848 14.073 16.0274 13.8789 16.0274Z" fill="black"/>
<path d="M16.8849 17.5304H10.4971C10.3029 17.5304 10.1455 17.6878 10.1455 17.882C10.1455 18.0761 10.3029 18.2335 10.4971 18.2335H16.8849C17.0791 18.2335 17.2365 18.0761 17.2365 17.882C17.2365 17.6878 17.0791 17.5304 16.8849 17.5304Z" fill="black"/>
</g>
<defs>
<clipPath id="clip0">
<rect width="24" height="24" fill="white" transform="translate(0 0.997131)"/>
</clipPath>
</defs>
</svg>
